<svg width="425" height="474" viewBox="0 0 425 474" fill="none" xmlns="http://www.w3.org/2000/svg">
    <path fill-rule="evenodd" clip-rule="evenodd"
        d="M299.05 0C299.05 0.667 299.05 1.333 299.05 2C297.717 2 296.383 2 295.05 2C296.99 6.997 300.657 10.164 306.05 11.5C308.161 16.764 311.494 20.93 316.05 24C317.402 28.683 318.736 33.35 320.05 38C319.717 38 319.383 38 319.05 38C317.513 34.421 316.013 30.754 314.55 27C312.131 24.2 309.964 24.367 308.05 27.5C305.659 27.787 303.326 28.287 301.05 29C300.464 28.791 299.964 28.457 299.55 28C298.842 30.768 297.342 31.601 295.05 30.5C295.383 30.833 295.717 31.167 296.05 31.5C294.577 32.21 293.91 33.376 294.05 35C286.633 26.246 278.299 18.579 269.05 12C267.154 11.034 265.154 10.701 263.05 11C275.115 7.977 287.115 4.31 299.05 0Z"
        fill="#A2A0A0" />
    <path fill-rule="evenodd" clip-rule="evenodd"
        d="M125.05 3C125.383 3 125.717 3 126.05 3C136.841 7.176 147.841 10.176 159.05 12C154.432 11.769 150.432 13.269 147.05 16.5C143.18 20.202 139.513 24.036 136.05 28C135.717 28 135.383 28 135.05 28C133.922 25.038 131.922 22.871 129.05 21.5C129.383 21.167 129.717 20.833 130.05 20.5C126.904 19.162 123.904 17.662 121.05 16C121.287 14.709 120.954 13.709 120.05 13C120.05 11.667 120.05 10.333 120.05 9C123.469 8.458 125.136 6.458 125.05 3Z"
        fill="#B0AFAD" />
    <path fill-rule="evenodd" clip-rule="evenodd"
        d="M262.05 11C262.383 11 262.717 11 263.05 11C265.154 10.701 267.154 11.034 269.05 12C278.299 18.579 286.633 26.246 294.05 35C297.397 40.369 300.731 45.703 304.05 51C304.301 54.611 305.301 57.944 307.05 61C307.61 63.301 308.11 65.634 308.55 68C308.933 68.556 309.433 68.889 310.05 69C312.427 77.423 315.094 85.756 318.05 94C317.965 97.149 318.965 99.816 321.05 102C323.563 105.878 324.896 110.211 325.05 115C325.309 117.772 326.309 120.105 328.05 122C329.163 126.11 330.496 130.11 332.05 134C334.408 140.704 336.741 147.37 339.05 154C343.017 163.907 346.351 173.907 349.05 184C349.309 186.772 350.309 189.105 352.05 191C352.05 191.667 352.05 192.333 352.05 193C352.309 195.772 353.309 198.105 355.05 200C356.398 205.74 358.065 211.407 360.05 217C359.893 218.373 360.06 219.707 360.55 221C361.978 223.89 363.478 226.556 365.05 229C366.208 235.31 368.208 241.31 371.05 247C370.575 250.916 371.575 254.249 374.05 257C374.954 257.709 375.287 258.709 375.05 260C375.396 264.156 376.73 267.823 379.05 271C379.621 274.958 380.955 278.624 383.05 282C382.888 284.027 383.055 286.027 383.55 288C383.933 288.556 384.433 288.889 385.05 289C386.627 293.97 388.294 298.97 390.05 304C390.477 306.51 391.143 308.843 392.05 311C394.242 315.739 395.908 320.739 397.05 326C398.004 336.615 398.337 347.282 398.05 358C398.05 358.333 398.05 358.667 398.05 359C397.328 359.418 396.828 360.084 396.55 361C396.049 365.01 395.549 369.01 395.05 373C395.05 373.333 395.05 373.67 395.05 374C392.855 377.65 391.188 381.65 390.05 386C386.974 392.49 383.641 398.82 380.05 405C376.721 407.33 374.054 410.33 372.05 414C371.383 415 370.717 416 370.05 417C365.562 420.42 361.229 424.09 357.05 428C354.914 429.15 352.914 430.49 351.05 432C348.004 432.22 345.671 433.56 344.05 436C343.159 436.61 342.159 436.94 341.05 437C338.278 437.26 335.945 438.26 334.05 440C328.542 441.83 322.876 443.5 317.05 445C251.726 446.13 186.393 446.3 121.05 445.5C115.002 445.25 109.002 444.75 103.05 444C81.6306 439.43 63.7966 428.76 49.5496 412C36.7846 396.75 28.9506 379.08 26.0496 359C25.6626 345.195 26.8296 331.528 29.5496 318C31.8976 313.63 33.3976 308.963 34.0496 304C34.6446 299.885 35.6446 295.885 37.0496 292C39.1246 288.013 41.1246 283.846 43.0496 279.5C43.7826 277.734 44.1166 275.901 44.0496 274C48.4466 259.188 53.4466 244.521 59.0496 230C59.6666 229.889 60.1666 229.556 60.5496 229C60.9896 226.634 61.4896 224.301 62.0496 222C61.9906 218.23 63.1576 214.896 65.5496 212C66.4556 207.874 67.6216 203.874 69.0496 200C72.0186 196.359 73.6856 192.026 74.0496 187C80.9636 163.446 88.6306 140.113 97.0496 117C98.7906 115.105 99.7906 112.772 100.05 110C101.548 105.665 102.881 101.332 104.05 97C105.344 96.21 106.511 95.21 107.55 94C107.945 91.293 108.445 88.627 109.05 86C111.207 78.371 113.207 70.705 115.05 63C117.975 60.025 119.642 56.358 120.05 52C122.943 49.752 124.61 46.752 125.05 43C126.006 40.061 127.673 37.728 130.05 36C131.05 36 132.05 36 133.05 36C133.122 32.947 134.122 30.281 136.05 28C139.513 24.036 143.18 20.202 147.05 16.5C150.432 13.269 154.432 11.769 159.05 12C167.352 14.639 176.019 15.972 185.05 16C186.717 16 188.383 16 190.05 16C196.145 17.514 202.478 18.18 209.05 18C213.772 17.992 218.105 17.325 222.05 16C225.717 16 229.383 16 233.05 16C242.111 15.228 251.111 14.061 260.05 12.5C260.966 12.222 261.632 11.722 262.05 11Z"
        fill="black" />
    <path fill-rule="evenodd" clip-rule="evenodd"
        d="M262.05 11C261.632 11.722 260.966 12.222 260.05 12.5C251.111 14.061 242.111 15.228 233.05 16C237.034 14.373 241.368 13.206 246.05 12.5C251.404 12.109 256.738 11.609 262.05 11Z"
        fill="#9A9A9A" />
    <path fill-rule="evenodd" clip-rule="evenodd"
        d="M159.05 12C166.942 13.351 174.942 14.185 183.05 14.5C183.966 14.778 184.632 15.278 185.05 16C176.019 15.972 167.352 14.639 159.05 12Z"
        fill="#898989" />
    <path fill-rule="evenodd" clip-rule="evenodd"
        d="M190.05 16C200.717 16 211.383 16 222.05 16C218.105 17.325 213.772 17.992 209.05 18C202.478 18.18 196.145 17.514 190.05 16Z"
        fill="#5A5A5A" />
    <path opacity="0.049" fill-rule="evenodd" clip-rule="evenodd"
        d="M299.05 2C301.809 5.127 304.809 8.127 308.05 11C310.181 14.613 312.681 17.947 315.55 21C316.033 21.948 316.199 22.948 316.05 24C311.494 20.93 308.161 16.764 306.05 11.5C300.657 10.164 296.99 6.997 295.05 2C296.383 2 297.717 2 299.05 2Z"
        fill="#9F845F" />
    <path opacity="0.227" fill-rule="evenodd" clip-rule="evenodd"
        d="M120.05 9C120.05 10.333 120.05 11.667 120.05 13C119.212 13.342 118.878 14.008 119.05 15C117.497 16.885 115.497 17.885 113.05 18C112.162 20.743 110.995 23.41 109.55 26C107.234 29.281 104.901 32.615 102.55 36C101.879 36.752 101.046 37.086 100.05 37C104.345 27.754 109.678 19.087 116.05 11C117.127 9.795 118.46 9.128 120.05 9Z"
        fill="#E5BA87" />
    <path fill-rule="evenodd" clip-rule="evenodd"
        d="M120.05 13C120.954 13.709 121.287 14.709 121.05 16C123.904 17.662 126.904 19.162 130.05 20.5C129.717 20.833 129.383 21.167 129.05 21.5C131.922 22.871 133.922 25.038 135.05 28C132.872 30.358 131.205 33.025 130.05 36C127.673 37.728 126.006 40.061 125.05 43C122.103 45.221 120.437 48.221 120.05 52C119.642 56.358 117.975 60.025 115.05 63C114.092 57.647 113.759 52.314 114.05 47C114.332 44.369 114.999 41.869 116.05 39.5C114.67 38.176 114.336 36.843 115.05 35.5C111.039 35.685 109.039 33.852 109.05 30C113.112 25.468 116.445 20.468 119.05 15C118.878 14.008 119.212 13.342 120.05 13Z"
        fill="#DCDCDC" />
    <path fill-rule="evenodd" clip-rule="evenodd"
        d="M135.05 28C135.383 28 135.717 28 136.05 28C134.122 30.281 133.122 32.947 133.05 36C132.05 36 131.05 36 130.05 36C131.205 33.025 132.872 30.358 135.05 28Z"
        fill="#3A3A3A" />
    <path fill-rule="evenodd" clip-rule="evenodd"
        d="M319.049 38C318.766 38.789 318.266 39.456 317.549 40C315.709 38.162 314.042 36.162 312.549 34C310.832 35.488 309.665 37.321 309.049 39.5C307.805 39.956 306.972 39.456 306.549 38C304.633 39.428 302.466 40.428 300.049 41C301.947 44.126 303.28 47.459 304.049 51C300.73 45.703 297.396 40.369 294.049 35C293.909 33.376 294.576 32.21 296.049 31.5C295.716 31.167 295.382 30.833 295.049 30.5C297.341 31.601 298.841 30.768 299.549 28C299.963 28.457 300.463 28.791 301.049 29C303.325 28.287 305.658 27.787 308.049 27.5C309.963 24.367 312.13 24.2 314.549 27C316.012 30.754 317.512 34.421 319.049 38Z"
        fill="#BCBBBC" />
    <path opacity="0.882" fill-rule="evenodd" clip-rule="evenodd"
        d="M316.05 24C316.926 23.869 317.593 24.202 318.05 25C319.391 28.012 321.057 30.846 323.05 33.5C326.61 40.017 329.276 46.85 331.05 54C328.427 51.95 326.76 49.284 326.05 46C323.52 43.783 321.52 41.116 320.05 38C318.736 33.35 317.402 28.683 316.05 24Z"
        fill="#CAAD8C" />
    <path fill-rule="evenodd" clip-rule="evenodd"
        d="M319.05 38C319.383 38 319.717 38 320.05 38C321.52 41.116 323.52 43.783 326.05 46C326.222 46.992 325.888 47.658 325.05 48C325.115 47.562 324.949 47.228 324.55 47C321.158 48.518 317.825 50.184 314.55 52C312.883 51.667 311.217 51.333 309.55 51C310.942 56.283 309.942 56.949 306.55 53C306.21 56.157 307.377 58.657 310.05 60.5C309.494 60.883 309.161 61.383 309.05 62C308.383 61.667 307.717 61.333 307.05 61C305.301 57.944 304.301 54.611 304.05 51C303.281 47.459 301.948 44.126 300.05 41C302.467 40.428 304.634 39.428 306.55 38C306.973 39.456 307.806 39.956 309.05 39.5C309.666 37.321 310.833 35.488 312.55 34C314.043 36.162 315.71 38.162 317.55 40C318.267 39.456 318.767 38.789 319.05 38Z"
        fill="#D5D5D5" />
    <path fill-rule="evenodd" clip-rule="evenodd"
        d="M125.05 43C124.61 46.752 122.943 49.752 120.05 52C120.437 48.221 122.103 45.221 125.05 43Z"
        fill="#A1A1A1" />
    <path opacity="0.424" fill-rule="evenodd" clip-rule="evenodd"
        d="M100.05 39C98.6566 42.535 97.4896 46.202 96.5496 50C95.8096 51.819 94.6426 53.152 93.0496 54C93.5946 50.398 94.5946 46.898 96.0496 43.5C97.0146 41.525 98.3486 40.025 100.05 39Z"
        fill="#F2CA93" />
    <path opacity="0.608" fill-rule="evenodd" clip-rule="evenodd"
        d="M93.0496 54C93.5266 59.906 91.8596 64.906 88.0496 69C87.8876 66.973 88.0546 64.973 88.5496 63C89.9066 59.814 91.4066 56.814 93.0496 54Z"
        fill="#F5C58B" />
    <path fill-rule="evenodd" clip-rule="evenodd"
        d="M119.05 15C116.445 20.468 113.112 25.468 109.05 30C108.213 32.359 106.713 34.359 104.55 36C103.106 41.435 100.772 46.435 97.5496 51C95.8486 56.537 95.0156 62.204 95.0496 68C94.0496 68 93.0496 68 92.0496 68C93.6356 70.771 94.1356 73.771 93.5496 77C90.1776 80.153 87.5116 83.82 85.5496 88C83.4626 95.399 80.6296 102.399 77.0496 109C77.5706 105.019 77.9036 101.019 78.0496 97C83.0416 92.242 85.3746 86.242 85.0496 79C85.0566 76.462 85.3906 73.962 86.0496 71.5C86.2336 70.124 86.9006 69.291 88.0496 69C91.8596 64.906 93.5266 59.906 93.0496 54C94.6426 53.152 95.8096 51.819 96.5496 50C97.4896 46.202 98.6566 42.535 100.05 39C100.05 38.333 100.05 37.667 100.05 37C101.046 37.086 101.879 36.752 102.55 36C104.901 32.615 107.234 29.281 109.55 26C110.995 23.41 112.162 20.743 113.05 18C115.497 17.885 117.497 16.885 119.05 15Z"
        fill="#F5E3CE" />
    <path opacity="0.224" fill-rule="evenodd" clip-rule="evenodd"
        d="M85.0496 79C85.3746 86.242 83.0416 92.242 78.0496 97C79.0196 92.647 80.1866 88.314 81.5496 84C82.0986 81.74 83.2656 80.074 85.0496 79Z"
        fill="#F4C799" />
    <path opacity="0.937" fill-rule="evenodd" clip-rule="evenodd"
        d="M326.05 46C326.76 49.284 328.427 51.95 331.05 54C337.681 72.245 344.181 90.245 350.55 108C352.234 112.884 353.401 117.884 354.05 123C352.268 121.477 350.935 119.477 350.05 117C345.103 103.323 340.27 89.656 335.55 76C335.056 74.366 334.89 72.699 335.05 71C334.05 71 333.05 71 332.05 71C330.734 66.516 329.901 61.849 329.55 57C326.88 54.521 325.38 51.521 325.05 48C325.888 47.658 326.222 46.992 326.05 46Z"
        fill="#E2C9A8" />
    <path opacity="0.235" fill-rule="evenodd" clip-rule="evenodd"
        d="M78.0496 97C77.9036 101.019 77.5706 105.019 77.0496 109C75.7166 110 74.3826 111 73.0496 112C74.2586 107.382 75.4246 102.715 76.5496 98C76.9326 97.444 77.4326 97.111 78.0496 97Z"
        fill="#F2C38B" />
    <path opacity="0.302" fill-rule="evenodd" clip-rule="evenodd"
        d="M354.05 123C355.667 124.621 356.834 126.621 357.55 129C360.752 139.462 364.419 149.796 368.55 160C369.688 163.621 370.522 167.288 371.05 171C368.735 167.723 366.402 164.389 364.05 161C361.697 152.183 358.864 143.517 355.55 135C354.722 131.034 354.222 127.034 354.05 123Z"
        fill="#DFC29D" />
    <path opacity="0.718" fill-rule="evenodd" clip-rule="evenodd"
        d="M371.05 171C375.629 182.176 379.962 193.509 384.05 205C383.926 205.607 383.593 205.94 383.05 206C382.05 206 381.05 206 380.05 206C380.081 200.913 378.414 196.579 375.05 193C373.303 185.753 371.969 178.42 371.05 171Z"
        fill="#DDC2A0" />
    <path opacity="0.863" fill-rule="evenodd" clip-rule="evenodd"
        d="M375.05 193C378.414 196.579 380.081 200.913 380.05 206C381.05 206 382.05 206 383.05 206C383.851 207.542 384.184 209.208 384.05 211C385.333 215.244 386.333 219.578 387.05 224C386.174 224.131 385.507 223.798 385.05 223C384.057 218.819 382.224 215.152 379.55 212C378.737 205.352 377.237 199.019 375.05 193Z"
        fill="#F1E0CA" />
    <path opacity="0.212" fill-rule="evenodd" clip-rule="evenodd"
        d="M384.05 211C385.34 211.558 386.173 212.558 386.55 214C389.785 222.198 392.285 230.532 394.05 239C392.533 238.989 391.366 238.323 390.55 237C389.371 232.651 388.204 228.317 387.05 224C386.333 219.578 385.333 215.244 384.05 211Z"
        fill="#DFBF9A" />
    <path opacity="0.565" fill-rule="evenodd" clip-rule="evenodd"
        d="M394.049 240C397.015 243.635 398.681 247.968 399.049 253C397.475 252.563 396.308 251.563 395.549 250C394.506 246.743 394.006 243.41 394.049 240Z"
        fill="#DEBD92" />
    <path opacity="0.504" fill-rule="evenodd" clip-rule="evenodd"
        d="M73.0494 112C72.6514 117.722 71.8184 123.389 70.5494 129C69.5494 130.333 68.5494 131.667 67.5494 133C63.3614 145.061 60.0285 157.394 57.5494 170C56.2564 173.219 54.5894 176.219 52.5494 179C50.2774 188.546 47.4444 197.879 44.0494 207C42.4754 207.437 41.3084 208.437 40.5494 210C38.0934 218.607 35.7594 227.274 33.5494 236C31.0104 239.089 29.1764 242.589 28.0494 246.5C26.2814 259.79 22.2814 272.29 16.0494 284C10.2514 299.395 5.25145 315.062 1.04945 331C0.722449 327.484 0.722449 323.984 1.04945 320.5C24.3064 251.334 47.8064 182.167 71.5494 113C71.9324 112.444 72.4324 112.111 73.0494 112Z"
        fill="#F5CC99" />
    <path fill-rule="evenodd" clip-rule="evenodd"
        d="M44.0496 207C42.5156 211.79 41.8486 216.79 42.0496 222C41.0496 222 40.0496 222 39.0496 222C39.2146 225.018 39.0476 228.018 38.5496 231C36.5286 233.209 35.3616 235.876 35.0496 239C31.9316 241.348 31.2646 244.348 33.0496 248C32.0696 249.481 30.9026 250.815 29.5496 252C28.2286 257.317 26.8956 262.651 25.5496 268C23.4016 273.148 21.0686 278.148 18.5496 283C14.2016 297.074 9.86856 311.074 5.54956 325C4.88256 334.667 4.88256 344.333 5.54956 354C6.57956 356.088 7.41256 358.255 8.04956 360.5C6.37256 363.047 5.70556 365.88 6.04956 369C5.43256 368.889 4.93256 368.556 4.54956 368C2.71956 356.355 1.55256 344.689 1.04956 333C1.04956 332.333 1.04956 331.667 1.04956 331C5.25156 315.062 10.2516 299.395 16.0496 284C22.2816 272.29 26.2816 259.79 28.0496 246.5C29.1766 242.589 31.0106 239.089 33.5496 236C35.7596 227.274 38.0936 218.607 40.5496 210C41.3086 208.437 42.4756 207.437 44.0496 207Z"
        fill="#F5E8D7" />
    <path fill-rule="evenodd" clip-rule="evenodd"
        d="M109.05 30C109.039 33.852 111.039 35.685 115.05 35.5C114.336 36.843 114.67 38.176 116.05 39.5C114.999 41.869 114.332 44.369 114.05 47C113.759 52.314 114.092 57.647 115.05 63C113.207 70.705 111.207 78.371 109.05 86C107.103 89.361 105.436 93.027 104.05 97C102.881 101.332 101.548 105.665 100.05 110C98.3086 111.895 97.3086 114.228 97.0496 117C88.6306 140.113 80.9636 163.446 74.0496 187C71.5866 190.943 69.9196 195.276 69.0496 200C67.6216 203.874 66.4556 207.874 65.5496 212C63.1576 214.896 61.9906 218.23 62.0496 222C61.4326 222.111 60.9326 222.444 60.5496 223C60.1096 225.366 59.6096 227.699 59.0496 230C53.4466 244.521 48.4466 259.188 44.0496 274C40.6616 279.467 38.3276 285.467 37.0496 292C35.6446 295.885 34.6446 299.885 34.0496 304C25.4446 321.435 22.7776 339.768 26.0496 359C28.9506 379.08 36.7846 396.75 49.5496 412C63.7966 428.76 81.6306 439.43 103.05 444C104.54 445.78 106.54 446.45 109.05 446C109.161 446.62 109.494 447.12 110.05 447.5C176.717 448.17 243.383 448.17 310.05 447.5C311.287 447.27 312.287 446.77 313.05 446C314.649 446.27 315.982 445.93 317.05 445C322.876 443.5 328.542 441.83 334.05 440C336.822 439.74 339.155 438.74 341.05 437C342.159 436.94 343.159 436.61 344.05 436C346.65 435.03 348.984 433.7 351.05 432C352.914 430.49 354.914 429.15 357.05 428C360.742 425.15 364.742 422.82 369.05 421C368.983 419.54 369.316 418.21 370.05 417C370.717 416 371.383 415 372.05 414C373.046 414.09 373.879 413.75 374.55 413C376.842 410.62 378.675 407.95 380.05 405C383.641 398.82 386.974 392.49 390.05 386C392.707 382.53 394.374 378.53 395.05 374C395.05 373.67 395.05 373.333 395.05 373C395.772 372.582 396.272 371.916 396.55 371C397.192 367.009 397.692 363.009 398.05 359C398.05 358.667 398.05 358.333 398.05 358C399.209 347.842 399.375 337.508 398.55 327C398.167 326.444 397.667 326.111 397.05 326C395.908 320.739 394.242 315.739 392.05 311C392.212 308.973 392.045 306.973 391.55 305C391.167 304.444 390.667 304.111 390.05 304C388.294 298.97 386.627 293.97 385.05 289C385.14 286.348 384.474 284.015 383.05 282C380.955 278.624 379.621 274.958 379.05 271C378.045 267.779 377.211 264.446 376.55 261C376.167 260.444 375.667 260.111 375.05 260C375.287 258.709 374.954 257.709 374.05 257C373.046 253.625 372.046 250.292 371.05 247C368.208 241.31 366.208 235.31 365.05 229C364.858 224.288 363.191 220.288 360.05 217C358.065 211.407 356.398 205.74 355.05 200C354.791 197.228 353.791 194.895 352.05 193C352.05 192.333 352.05 191.667 352.05 191C351.791 188.228 350.791 185.895 349.05 184C346.351 173.907 343.017 163.907 339.05 154C338.897 146.462 336.564 139.796 332.05 134C330.496 130.11 329.163 126.11 328.05 122C327.907 119.115 326.907 116.782 325.05 115C324.896 110.211 323.563 105.878 321.05 102C320.817 98.958 319.817 96.292 318.05 94C315.094 85.756 312.427 77.423 310.05 69C309.331 66.736 308.998 64.403 309.05 62C309.161 61.383 309.494 60.883 310.05 60.5C307.377 58.657 306.21 56.157 306.55 53C309.942 56.949 310.942 56.283 309.55 51C311.217 51.333 312.883 51.667 314.55 52C317.825 50.184 321.158 48.518 324.55 47C324.949 47.228 325.115 47.562 325.05 48C325.38 51.521 326.88 54.521 329.55 57C329.901 61.849 330.734 66.516 332.05 71C333.05 71 334.05 71 335.05 71C334.89 72.699 335.056 74.366 335.55 76C340.27 89.656 345.103 103.323 350.05 117C350.935 119.477 352.268 121.477 354.05 123C354.222 127.034 354.722 131.034 355.55 135C358.864 143.517 361.697 152.183 364.05 161C366.402 164.389 368.735 167.723 371.05 171C371.969 178.42 373.303 185.753 375.05 193C377.237 199.019 378.737 205.352 379.55 212C382.224 215.152 384.057 218.819 385.05 223C385.507 223.798 386.174 224.131 387.05 224C388.204 228.317 389.371 232.651 390.55 237C391.366 238.323 392.533 238.989 394.05 239C394.05 239.333 394.05 239.667 394.05 240C394.007 243.41 394.507 246.743 395.55 250C396.309 251.563 397.476 252.563 399.05 253C399.05 253.667 399.05 254.333 399.05 255C399.331 258.688 399.831 262.355 400.55 266C406.287 281.9 411.454 297.9 416.05 314C418.453 323.636 419.786 333.469 420.05 343.5C419.353 354.038 418.353 364.538 417.05 375C416.006 380.23 414.839 385.56 413.55 391C410.878 397.14 408.045 403.14 405.05 409C401.926 409.44 399.593 411.11 398.05 414C395.186 420.05 391.352 425.38 386.55 430C384.843 432.41 384.01 435.08 384.05 438C383.717 438 383.383 438 383.05 438C381.242 437.99 379.575 438.49 378.05 439.5C373.984 443.9 369.317 447.56 364.05 450.5C355.454 454.19 346.788 457.69 338.05 461C337.717 461.67 337.383 462.33 337.05 463C333.866 464.61 330.533 465.61 327.05 466C320.407 466.67 313.741 467.17 307.05 467.5C245.383 468.17 183.717 468.17 122.05 467.5C110.637 465.99 99.3036 463.99 88.0496 461.5C87.1696 460.14 86.8356 458.64 87.0496 457C83.8846 457.54 81.2186 456.7 79.0496 454.5C81.4406 453.81 81.4406 452.81 79.0496 451.5C77.1086 450.76 75.2756 450.92 73.5496 452C72.7996 451.37 71.9656 450.87 71.0496 450.5C71.3826 450.17 71.7166 449.83 72.0496 449.5C65.4656 451.63 60.1326 449.97 56.0496 444.5C52.3666 442.71 48.7006 441.04 45.0496 439.5C44.3866 437.98 43.3866 436.81 42.0496 436C30.4536 424.84 21.2876 411.84 14.5496 397C13.1496 395.75 11.6496 394.75 10.0496 394C8.13957 385.82 6.80657 377.49 6.04957 369C5.70557 365.88 6.37257 363.047 8.04957 360.5C7.41257 358.255 6.57957 356.088 5.54957 354C4.88257 344.333 4.88257 334.667 5.54957 325C9.86857 311.074 14.2016 297.074 18.5496 283C21.0686 278.148 23.4016 273.148 25.5496 268C26.8956 262.651 28.2286 257.317 29.5496 252C30.9026 250.815 32.0696 249.481 33.0496 248C31.2646 244.348 31.9316 241.348 35.0496 239C35.3616 235.876 36.5286 233.209 38.5496 231C39.0476 228.018 39.2146 225.018 39.0496 222C40.0496 222 41.0496 222 42.0496 222C41.8486 216.79 42.5156 211.79 44.0496 207C47.4446 197.879 50.2776 188.546 52.5496 179C54.5896 176.219 56.2566 173.219 57.5496 170C60.0286 157.394 63.3616 145.061 67.5496 133C68.5496 131.667 69.5496 130.333 70.5496 129C71.8186 123.389 72.6516 117.722 73.0496 112C74.3826 111 75.7166 110 77.0496 109C80.6296 102.399 83.4626 95.399 85.5496 88C87.5116 83.82 90.1776 80.153 93.5496 77C94.1356 73.771 93.6356 70.771 92.0496 68C93.0496 68 94.0496 68 95.0496 68C95.0156 62.204 95.8486 56.537 97.5496 51C100.772 46.435 103.106 41.435 104.55 36C106.713 34.359 108.213 32.359 109.05 30Z"
        fill="#EAE9E9" />
    <path fill-rule="evenodd" clip-rule="evenodd"
        d="M375.05 260C375.667 260.111 376.167 260.444 376.55 261C377.211 264.446 378.045 267.779 379.05 271C376.73 267.823 375.396 264.156 375.05 260Z"
        fill="#646464" />
    <path fill-rule="evenodd" clip-rule="evenodd"
        d="M371.05 247C372.046 250.292 373.046 253.625 374.05 257C371.575 254.249 370.575 250.916 371.05 247Z"
        fill="#515151" />
    <path fill-rule="evenodd" clip-rule="evenodd"
        d="M62.0496 222C61.4896 224.301 60.9896 226.634 60.5496 229C60.1666 229.556 59.6666 229.889 59.0496 230C59.6096 227.699 60.1096 225.366 60.5496 223C60.9326 222.444 61.4326 222.111 62.0496 222Z"
        fill="#52504E" />
    <path fill-rule="evenodd" clip-rule="evenodd"
        d="M360.05 217C363.191 220.288 364.858 224.288 365.05 229C363.478 226.556 361.978 223.89 360.55 221C360.06 219.707 359.893 218.373 360.05 217Z"
        fill="#6C6C6C" />
    <path fill-rule="evenodd" clip-rule="evenodd"
        d="M352.05 193C353.791 194.895 354.791 197.228 355.05 200C353.309 198.105 352.309 195.772 352.05 193Z"
        fill="#6D6E6C" />
    <path fill-rule="evenodd" clip-rule="evenodd"
        d="M349.05 184C350.791 185.895 351.791 188.228 352.05 191C350.309 189.105 349.309 186.772 349.05 184Z"
        fill="#7E7D7E" />
    <path fill-rule="evenodd" clip-rule="evenodd"
        d="M74.0496 187C73.6856 192.026 72.0186 196.359 69.0496 200C69.9196 195.276 71.5866 190.943 74.0496 187Z"
        fill="#4C4C4C" />
    <path fill-rule="evenodd" clip-rule="evenodd"
        d="M332.05 134C336.564 139.796 338.897 146.462 339.05 154C336.741 147.37 334.408 140.704 332.05 134Z"
        fill="#AAAAAA" />
    <path fill-rule="evenodd" clip-rule="evenodd"
        d="M325.05 115C326.907 116.782 327.907 119.115 328.05 122C326.309 120.105 325.309 117.772 325.05 115Z"
        fill="#5E5F5D" />
    <path fill-rule="evenodd" clip-rule="evenodd"
        d="M100.05 110C99.7906 112.772 98.7906 115.105 97.0496 117C97.3086 114.228 98.3086 111.895 100.05 110Z"
        fill="#878787" />
    <path fill-rule="evenodd" clip-rule="evenodd"
        d="M318.049 94C319.816 96.292 320.816 98.958 321.049 102C318.964 99.816 317.964 97.149 318.049 94Z"
        fill="#545454" />
    <path fill-rule="evenodd" clip-rule="evenodd"
        d="M109.05 86C108.445 88.627 107.945 91.293 107.55 94C106.511 95.21 105.344 96.21 104.05 97C105.436 93.027 107.103 89.361 109.05 86Z"
        fill="#393939" />
    <path fill-rule="evenodd" clip-rule="evenodd"
        d="M307.05 61C307.717 61.333 308.383 61.667 309.05 62C308.998 64.403 309.331 66.736 310.05 69C309.433 68.889 308.933 68.556 308.55 68C308.11 65.634 307.61 63.301 307.05 61Z"
        fill="#767675" />
    <path opacity="0.02" fill-rule="evenodd" clip-rule="evenodd"
        d="M404.05 270C405.3 270.077 406.133 270.744 406.55 272C408.059 276.715 409.559 281.382 411.05 286C409.691 285.493 408.691 284.493 408.05 283C406.863 278.578 405.53 274.244 404.05 270Z"
        fill="#C9A57B" />
    <path fill-rule="evenodd" clip-rule="evenodd"
        d="M44.0496 274C44.1166 275.901 43.7826 277.734 43.0496 279.5C41.1246 283.846 39.1246 288.013 37.0496 292C38.3276 285.467 40.6616 279.467 44.0496 274Z"
        fill="#8E8E8E" />
    <path fill-rule="evenodd" clip-rule="evenodd"
        d="M383.05 282C384.474 284.015 385.14 286.348 385.05 289C384.433 288.889 383.933 288.556 383.55 288C383.055 286.027 382.888 284.027 383.05 282Z"
        fill="#535253" />
    <path fill-rule="evenodd" clip-rule="evenodd"
        d="M34.0495 304C33.3975 308.963 31.8975 313.63 29.5495 318C26.8295 331.528 25.6625 345.195 26.0495 359C22.7775 339.768 25.4445 321.435 34.0495 304Z"
        fill="#494948" />
    <path fill-rule="evenodd" clip-rule="evenodd"
        d="M390.05 304C390.667 304.111 391.167 304.444 391.55 305C392.045 306.973 392.212 308.973 392.05 311C391.143 308.843 390.477 306.51 390.05 304Z"
        fill="#5A5A5A" />
    <path opacity="0.361" fill-rule="evenodd" clip-rule="evenodd"
        d="M399.05 255C402.405 259.246 404.072 264.246 404.05 270C405.53 274.244 406.863 278.578 408.05 283C408.691 284.493 409.691 285.493 411.05 286C415.618 298.016 419.285 310.016 422.05 322C421.082 324.107 420.748 326.441 421.05 329C420.255 323.735 418.588 318.735 416.05 314C411.454 297.9 406.287 281.9 400.55 266C399.831 262.355 399.331 258.688 399.05 255Z"
        fill="#E7CEB1" />
    <path opacity="0.114" fill-rule="evenodd" clip-rule="evenodd"
        d="M422.049 322C423.584 325.045 423.917 328.045 423.049 331C422.382 330.333 421.716 329.667 421.049 329C420.747 326.441 421.081 324.107 422.049 322Z"
        fill="#C2A765" />
    <path fill-rule="evenodd" clip-rule="evenodd"
        d="M397.05 326C397.667 326.111 398.167 326.444 398.55 327C399.375 337.508 399.209 347.842 398.05 358C398.337 347.282 398.004 336.615 397.05 326Z"
        fill="#757575" />
    <path opacity="0.962" fill-rule="evenodd" clip-rule="evenodd"
        d="M416.05 314C418.588 318.735 420.255 323.735 421.05 329C421.717 329.667 422.383 330.333 423.05 331C423.05 332.333 423.05 333.667 423.05 335C421.717 342.667 421.717 350.333 423.05 358C423.05 359.333 423.05 360.667 423.05 362C422.054 361.914 421.221 362.248 420.55 363C420.011 367.304 418.845 371.304 417.05 375C418.353 364.538 419.353 354.038 420.05 343.5C419.786 333.469 418.453 323.636 416.05 314Z"
        fill="#F6E6D2" />
    <path opacity="0.067" fill-rule="evenodd" clip-rule="evenodd"
        d="M423.05 335C424.383 342.667 424.383 350.333 423.05 358C421.717 350.333 421.717 342.667 423.05 335Z"
        fill="#C4A379" />
    <path opacity="0.52" fill-rule="evenodd" clip-rule="evenodd"
        d="M1.04955 333C1.55255 344.689 2.71955 356.355 4.54955 368C4.93255 368.556 5.43255 368.889 6.04955 369C6.80655 377.49 8.13955 385.82 10.0495 394C8.30255 392.52 7.13555 390.52 6.54955 388C4.69355 379.91 2.52655 371.907 0.0495479 364C-0.135452 353.552 0.197548 343.218 1.04955 333Z"
        fill="#F5CEA1" />
    <path opacity="0.063" fill-rule="evenodd" clip-rule="evenodd"
        d="M423.05 364C422.773 368.056 422.106 372.056 421.05 376C420.803 377.21 420.136 377.88 419.05 378C419.72 372.927 421.053 368.26 423.05 364Z"
        fill="#C09A6C" />
    <path fill-rule="evenodd" clip-rule="evenodd"
        d="M398.05 359C397.692 363.009 397.192 367.009 396.55 371C396.272 371.916 395.772 372.582 395.05 373C395.549 369.01 396.049 365.01 396.55 361C396.828 360.084 397.328 359.418 398.05 359Z"
        fill="#696969" />
    <path fill-rule="evenodd" clip-rule="evenodd"
        d="M395.05 374C394.374 378.53 392.707 382.53 390.05 386C391.188 381.65 392.855 377.65 395.05 374Z"
        fill="#575757" />
    <path opacity="0.278" fill-rule="evenodd" clip-rule="evenodd"
        d="M423.049 362C423.049 362.667 423.049 363.333 423.049 364C421.052 368.26 419.719 372.927 419.049 378C419.213 380.69 419.046 383.35 418.549 386C418.049 387.17 417.216 388 416.049 388.5C416.382 388.83 416.716 389.17 417.049 389.5C411.688 401.11 405.521 412.28 398.549 423C394.136 428.58 389.302 433.58 384.049 438C384.009 435.08 384.842 432.41 386.549 430C391.351 425.38 395.185 420.05 398.049 414C399.592 411.11 401.925 409.44 405.049 409C408.044 403.14 410.877 397.14 413.549 391C414.838 385.56 416.005 380.23 417.049 375C418.844 371.304 420.01 367.304 420.549 363C421.22 362.248 422.053 361.914 423.049 362Z"
        fill="#E0C5A3" />
    <path opacity="0.608" fill-rule="evenodd" clip-rule="evenodd"
        d="M10.0496 394C11.6496 394.75 13.1496 395.75 14.5496 397C21.2876 411.84 30.4536 424.84 42.0496 436C41.9156 437.79 42.2486 439.46 43.0496 441C27.6736 428.44 16.6736 412.77 10.0496 394Z"
        fill="#F6D3AA" />
    <path fill-rule="evenodd" clip-rule="evenodd"
        d="M380.05 405C378.675 407.95 376.842 410.62 374.55 413C373.879 413.75 373.046 414.09 372.05 414C374.054 410.33 376.721 407.33 380.05 405Z"
        fill="#717171" />
    <path fill-rule="evenodd" clip-rule="evenodd"
        d="M370.05 417C369.316 418.21 368.983 419.54 369.05 421C364.742 422.82 360.742 425.15 357.05 428C361.229 424.09 365.562 420.42 370.05 417Z"
        fill="#8F9091" />
    <path fill-rule="evenodd" clip-rule="evenodd"
        d="M351.05 432C348.984 433.7 346.65 435.03 344.05 436C345.671 433.56 348.004 432.22 351.05 432Z"
        fill="#6B6B6B" />
    <path fill-rule="evenodd" clip-rule="evenodd"
        d="M341.05 437C339.155 438.74 336.822 439.74 334.05 440C335.945 438.26 338.278 437.26 341.05 437Z"
        fill="#4E4E4E" />
    <path opacity="0.929" fill-rule="evenodd" clip-rule="evenodd"
        d="M43.0496 441C46.6566 443.09 50.6566 444.59 55.0496 445.5C57.7916 447.39 59.4586 449.89 60.0496 453C53.5596 450.18 47.8926 446.18 43.0496 441Z"
        fill="#F2CDA4" />
    <path fill-rule="evenodd" clip-rule="evenodd"
        d="M103.05 444C109.002 444.75 115.002 445.25 121.05 445.5C186.393 446.3 251.726 446.13 317.05 445C315.982 445.93 314.649 446.27 313.05 446C245.05 447.33 177.05 447.33 109.05 446C106.54 446.45 104.54 445.78 103.05 444Z"
        fill="#2D2F2E" />
    <path fill-rule="evenodd" clip-rule="evenodd"
        d="M109.05 446C177.05 447.33 245.05 447.33 313.05 446C312.287 446.77 311.287 447.27 310.05 447.5C243.383 448.17 176.717 448.17 110.05 447.5C109.494 447.12 109.161 446.62 109.05 446Z"
        fill="#A7A7A7" />
    <path opacity="0.671" fill-rule="evenodd" clip-rule="evenodd"
        d="M383.05 438C383.136 439 382.802 439.83 382.05 440.5C365.751 453.94 347.418 463.61 327.05 469.5C320.43 470.64 313.764 471.14 307.05 471C304.717 471 302.383 471 300.05 471C300.05 470.33 300.05 469.67 300.05 469C306.392 469.17 312.725 469 319.05 468.5C322.225 468.55 324.892 467.72 327.05 466C330.533 465.61 333.866 464.61 337.05 463C337.383 462.33 337.717 461.67 338.05 461C346.788 457.69 355.454 454.19 364.05 450.5C369.317 447.56 373.984 443.9 378.05 439.5C379.575 438.49 381.242 437.99 383.05 438Z"
        fill="#DEC19F" />
    <path opacity="0.824" fill-rule="evenodd" clip-rule="evenodd"
        d="M60.0496 453C64.9116 454.63 69.9116 455.8 75.0496 456.5C78.7416 457.95 81.9086 460.11 84.5496 463C87.0906 463.51 89.5906 464.17 92.0496 465C93.5426 465.64 94.5426 466.64 95.0496 468C90.4316 466.79 85.7646 465.62 81.0496 464.5C73.7186 461.22 66.7186 457.39 60.0496 453Z"
        fill="#E5C8A3" />
    <path opacity="0.99" fill-rule="evenodd" clip-rule="evenodd"
        d="M42.0496 436C43.3866 436.81 44.3866 437.98 45.0496 439.5C48.7006 441.04 52.3666 442.71 56.0496 444.5C60.1326 449.97 65.4656 451.63 72.0496 449.5C71.7166 449.83 71.3826 450.17 71.0496 450.5C71.9656 450.87 72.7996 451.37 73.5496 452C75.2756 450.92 77.1086 450.76 79.0496 451.5C81.4406 452.81 81.4406 453.81 79.0496 454.5C81.2186 456.7 83.8846 457.54 87.0496 457C86.8356 458.64 87.1696 460.14 88.0496 461.5C99.3036 463.99 110.637 465.99 122.05 467.5C183.717 468.17 245.383 468.17 307.05 467.5C313.741 467.17 320.407 466.67 327.05 466C324.892 467.72 322.225 468.55 319.05 468.5C312.725 469 306.392 469.17 300.05 469C231.708 469.29 163.374 468.96 95.0496 468C94.5426 466.64 93.5426 465.64 92.0496 465C89.5906 464.17 87.0906 463.51 84.5496 463C81.9086 460.11 78.7416 457.95 75.0496 456.5C69.9116 455.8 64.9116 454.63 60.0496 453C59.4586 449.89 57.7916 447.39 55.0496 445.5C50.6566 444.59 46.6566 443.09 43.0496 441C42.2486 439.46 41.9156 437.79 42.0496 436Z"
        fill="#F1E6D8" />
    <path opacity="0.38" fill-rule="evenodd" clip-rule="evenodd"
        d="M95.0496 468C163.374 468.96 231.708 469.29 300.05 469C300.05 469.67 300.05 470.33 300.05 471C295.717 471 291.383 471 287.05 471C281.05 471 275.05 471 269.05 471C234.05 471 199.05 471 164.05 471C155.05 471 146.05 471 137.05 471C130.383 471 123.717 471 117.05 471C109.39 471.42 102.057 470.42 95.0496 468Z"
        fill="#E4CFB6" />
    <path opacity="0.01" fill-rule="evenodd" clip-rule="evenodd"
        d="M117.05 471C123.717 471 130.383 471 137.05 471C137.05 471.67 137.05 472.33 137.05 473C130.708 473.17 124.375 473 118.05 472.5C117.494 472.12 117.161 471.62 117.05 471Z"
        fill="#BB8E44" />
    <path opacity="0.01" fill-rule="evenodd" clip-rule="evenodd"
        d="M137.05 471C146.05 471 155.05 471 164.05 471C164.05 471.67 164.05 472.33 164.05 473C155.05 473 146.05 473 137.05 473C137.05 472.33 137.05 471.67 137.05 471Z"
        fill="#97896A" />
    <path opacity="0.016" fill-rule="evenodd" clip-rule="evenodd"
        d="M164.05 471C199.05 471 234.05 471 269.05 471C269.05 471.67 269.05 472.33 269.05 473C234.05 473 199.05 473 164.05 473C164.05 472.33 164.05 471.67 164.05 471Z"
        fill="#AB7648" />
    <path opacity="0.01" fill-rule="evenodd" clip-rule="evenodd"
        d="M269.05 471C275.05 471 281.05 471 287.05 471C287.05 471.67 287.05 472.33 287.05 473C281.05 473 275.05 473 269.05 473C269.05 472.33 269.05 471.67 269.05 471Z"
        fill="#AA5554" />
    <path opacity="0.01" fill-rule="evenodd" clip-rule="evenodd"
        d="M287.05 471C291.383 471 295.717 471 300.05 471C302.383 471 304.717 471 307.05 471C300.8 472.96 294.134 473.63 287.05 473C287.05 472.33 287.05 471.67 287.05 471Z"
        fill="#B67945" />
</svg>