<svg width="491" height="470" viewBox="0 0 491 470" fill="none" xmlns="http://www.w3.org/2000/svg">
    <path opacity="0.314" fill-rule="evenodd" clip-rule="evenodd"
        d="M227.841 0.99975C239.508 -0.33325 251.174 -0.33325 262.841 0.99975C251.174 2.33275 239.508 2.33275 227.841 0.99975Z"
        fill="#F3C184" />
    <path fill-rule="evenodd" clip-rule="evenodd"
        d="M272.841 5.99975C278.185 5.83375 283.518 6.00075 288.841 6.49975C299.528 9.16775 310.195 11.8347 320.841 14.4997C329.389 18.9487 338.389 22.2817 347.841 24.4997C352.052 26.0977 355.719 28.4317 358.841 31.4997C360.508 31.8327 362.174 32.1667 363.841 32.4997C369.029 36.0937 374.695 38.5937 380.841 39.9997C384.316 40.4937 386.983 42.1607 388.841 44.9997C388.969 46.5897 389.636 47.9227 390.841 48.9997C394.133 51.1937 397.466 53.1937 400.841 54.9997C401.95 55.0567 402.95 55.3897 403.841 55.9997C404.175 61.6817 407.175 65.3487 412.841 66.9997C419.508 73.6667 426.174 80.3327 432.841 86.9997C435.654 90.2977 437.654 93.9637 438.841 97.9997C440.508 97.9997 442.174 97.9997 443.841 97.9997C443.449 103.27 445.782 106.604 450.841 108C450.684 109.373 450.851 110.707 451.341 112C452.929 117.164 455.596 121.83 459.341 126C461.258 133.163 464.758 139.496 469.841 145C470.719 149.751 471.886 154.417 473.341 159C473.956 160.616 474.956 161.949 476.341 163C476.674 167 477.008 171 477.341 175C477.715 175.916 478.215 176.75 478.841 177.5C480.399 177.71 481.732 178.21 482.841 179C482.841 179.333 482.841 179.667 482.841 180C481.409 185.362 481.909 190.695 484.341 196C484.525 205.376 485.191 214.709 486.341 224C486.841 234.328 487.007 244.661 486.841 255C485.205 265.573 483.871 276.24 482.841 287C478.627 297.797 475.293 308.797 472.841 320C471.863 320.477 471.03 321.143 470.341 322C469.865 325.476 468.531 328.476 466.341 331C465.844 333.31 465.678 335.643 465.841 338C465.841 338.333 465.841 338.667 465.841 339C464.11 340.639 462.276 342.306 460.341 344C459.005 348.131 457.505 352.131 455.841 356C455.841 356.333 455.841 356.667 455.841 357C454.263 357.566 452.929 358.566 451.841 360C449.383 363.448 447.383 367.114 445.841 371C445.841 371.333 445.841 371.667 445.841 372C439.877 374.63 435.544 378.964 432.841 385C428.819 387.67 426.486 391.337 425.841 396C424.188 397.105 422.521 397.271 420.841 396.5C414.442 404.387 407.109 411.387 398.841 417.5C394.296 417.547 391.296 419.714 389.841 424C387.053 423.577 385.053 424.577 383.841 427C378.754 429.625 373.92 432.625 369.341 436C366.011 437.477 362.511 438.311 358.841 438.5C355.942 441.229 353.275 444.062 350.841 447C348.152 447.538 345.485 448.205 342.841 449C341.955 449.825 341.622 450.825 341.841 452C339.841 452.667 337.841 453.333 335.841 454C323.906 458.31 311.906 461.977 299.841 465C299.508 465 299.174 465 298.841 465C293.529 465.609 288.195 466.109 282.841 466.5C278.159 467.206 273.825 468.373 269.841 470C266.174 470 262.508 470 258.841 470C248.174 470 237.508 470 226.841 470C225.174 470 223.508 470 221.841 470C221.423 469.278 220.757 468.778 219.841 468.5C211.733 468.185 203.733 467.351 195.841 466C184.632 464.176 173.632 461.176 162.841 457C161.884 454.332 159.884 452.832 156.841 452.5C156.27 451.295 155.603 450.128 154.841 449C152.302 448.385 149.802 447.718 147.341 447C146.63 445.133 147.13 443.633 148.841 442.5C145.331 440.593 144.165 437.76 145.341 434C147.614 432.657 149.78 431.157 151.841 429.5C149.916 427.905 147.916 427.738 145.841 429C146.357 427.742 145.691 426.742 143.841 426C142.902 427.553 141.735 428.887 140.341 430C137.809 428.797 135.976 429.63 134.841 432.5C137.359 434.83 138.693 437.663 138.841 441C133.434 440.233 128.434 438.4 123.841 435.5C127.709 435.28 129.875 433.447 130.341 430C127.242 429.045 124.075 428.211 120.841 427.5C120.174 426.5 119.508 425.5 118.841 424.5C120.56 423.443 122.394 422.61 124.341 422C126.367 422.519 128.367 422.853 130.341 423C130.848 421.504 130.348 420.337 128.841 419.5C129.174 419.167 129.508 418.833 129.841 418.5C127.577 418.264 125.41 417.764 123.341 417C121.842 419.256 120.175 419.256 118.341 417C117.396 417.405 116.729 418.072 116.341 419C115.6 417.859 114.766 417.859 113.841 419C111.615 416.578 109.281 416.578 106.841 419C105.185 417.478 104.018 417.811 103.341 420C102.674 419.333 102.008 418.667 101.341 418C100.6 419.141 99.7658 419.141 98.8408 418C95.8548 413.406 91.5218 410.906 85.8408 410.5C84.0358 408.097 81.7028 406.43 78.8408 405.5C76.6788 403.855 75.3458 401.688 74.8408 399C72.6768 398.086 70.6768 396.919 68.8408 395.5C68.1568 392.465 66.4898 390.131 63.8408 388.5C65.8388 387.086 66.8388 385.086 66.8408 382.5C65.9588 378.383 65.9588 374.216 66.8408 370C63.7418 369.592 61.4078 370.759 59.8408 373.5C61.6878 377.64 60.3548 379.807 55.8408 380C56.0808 376.921 55.7478 373.921 54.8408 371C56.0878 369.177 56.7548 367.177 56.8408 365C55.1408 365.126 53.6408 365.793 52.3408 367C51.3408 366.333 50.3408 365.667 49.3408 365C48.2638 365.929 47.0968 366.596 45.8408 367C44.5918 365.722 43.0918 364.722 41.3408 364C41.6068 360.599 40.1068 358.933 36.8408 359C36.9978 357.627 36.8308 356.293 36.3408 355C34.2568 352.67 32.7568 350.003 31.8408 347C29.3088 337.609 25.1418 328.942 19.3408 321C16.0738 310.857 13.4068 300.524 11.3408 290C10.6328 289.119 9.79882 288.453 8.84082 288C8.43382 282.497 7.26682 277.163 5.34082 272C4.66982 271.248 3.83682 270.914 2.84082 271C2.84082 270.333 2.84082 269.667 2.84082 269C3.66482 265.736 3.99882 262.402 3.84082 259C2.76082 233.737 4.42782 208.737 8.84082 184C9.75382 179.823 11.0868 175.823 12.8408 172C14.1688 167.925 16.0018 163.925 18.3408 160C18.2948 156.867 19.2948 154.2 21.3408 152C21.8358 150.027 22.0028 148.027 21.8408 146C23.1738 146 24.5078 146 25.8408 146C25.6218 147.175 25.9548 148.175 26.8408 149C27.5458 146.828 28.5458 144.828 29.8408 143C27.7218 139.863 27.5558 136.53 29.3408 133C31.9158 128.944 33.9158 124.611 35.3408 120C39.6898 116.63 42.5228 112.296 43.8408 107C45.2258 105.886 46.7258 104.886 48.3408 104C50.8658 99.6037 53.8658 95.6037 57.3408 91.9997C59.8768 89.5377 61.3768 86.5377 61.8408 82.9997C63.5278 80.4897 65.8608 78.9897 68.8408 78.4997C69.9578 74.2507 72.6248 71.5847 76.8408 70.4997C79.0918 67.4327 81.4248 64.5997 83.8408 61.9997C89.1228 59.3547 94.1228 56.1877 98.8408 52.4997C100.508 52.1667 102.174 51.8327 103.841 51.4997C105.761 47.4527 108.928 44.9527 113.341 43.9997C119.747 39.7387 125.914 35.4057 131.841 30.9997C137.939 28.9127 143.939 26.7467 149.841 24.4997C150.721 23.1437 151.055 21.6437 150.841 19.9997C155.391 20.6157 159.391 19.4487 162.841 16.4997C167.415 15.1197 172.082 13.9527 176.841 12.9997C185.28 12.1487 193.613 10.6487 201.841 8.49975C207.841 8.16675 213.841 7.83275 219.841 7.49975C222.702 6.95975 225.369 5.95975 227.841 4.49975C242.914 3.52575 257.914 4.02575 272.841 5.99975Z"
        fill="#E9E9E8" />
    <path opacity="0.851" fill-rule="evenodd" clip-rule="evenodd"
        d="M290.841 4.99975C284.139 5.16375 277.472 4.83075 270.841 3.99975C268.937 3.76175 267.603 2.76175 266.841 0.999755C271.817 0.226755 276.651 0.893755 281.341 2.99975C282.341 2.66675 283.341 2.33275 284.341 1.99975C287.071 2.20575 289.238 3.20575 290.841 4.99975Z"
        fill="#F8D199" />
    <path fill-rule="evenodd" clip-rule="evenodd"
        d="M223.841 0.999756C225.174 0.999756 226.508 0.999756 227.841 0.999756C239.508 2.33276 251.174 2.33276 262.841 0.999756C264.174 0.999756 265.508 0.999756 266.841 0.999756C267.603 2.76176 268.937 3.76176 270.841 3.99976C271.508 4.66676 272.174 5.33276 272.841 5.99976C257.914 4.02576 242.914 3.52576 227.841 4.49976C225.369 5.95976 222.702 6.95976 219.841 7.49976C213.841 7.83276 207.841 8.16676 201.841 8.49976C193.613 10.6488 185.28 12.1488 176.841 12.9998C176.841 11.9998 176.841 10.9998 176.841 9.99976C177.174 9.99976 177.508 9.99976 177.841 9.99976C184.985 10.0938 191.651 8.59376 197.841 5.49976C205.55 5.26176 213.217 4.59576 220.841 3.49976C222.46 3.26376 223.46 2.43076 223.841 0.999756Z"
        fill="#F6E8D5" />
    <path opacity="0.502" fill-rule="evenodd" clip-rule="evenodd"
        d="M223.841 0.999759C223.46 2.43076 222.46 3.26376 220.841 3.49976C213.217 4.59576 205.55 5.26176 197.841 5.49976C191.651 8.59376 184.985 10.0938 177.841 9.99976C180.898 8.10676 184.398 6.77376 188.341 5.99976C194.339 4.51876 200.339 3.18576 206.341 1.99976C207.234 2.58076 208.234 2.91476 209.341 2.99976C214.023 0.856759 218.857 0.189759 223.841 0.999759Z"
        fill="#F6CE9B" />
    <path opacity="0.094" fill-rule="evenodd" clip-rule="evenodd"
        d="M315.841 9.99976C320.678 10.4448 325.345 11.6118 329.841 13.4998C334.896 15.0088 339.563 17.1758 343.841 19.9998C339.004 18.2798 334.004 16.9468 328.841 15.9998C324.297 13.9538 319.964 11.9538 315.841 9.99976Z"
        fill="#F0BE86" />
    <path opacity="0.851" fill-rule="evenodd" clip-rule="evenodd"
        d="M315.841 9.99976C319.964 11.9538 324.297 13.9538 328.841 15.9998C334.004 16.9468 339.004 18.2798 343.841 19.9998C352.699 23.1298 361.365 26.9628 369.841 31.4998C373.99 33.8988 377.657 36.7318 380.841 39.9998C374.695 38.5938 369.029 36.0938 363.841 32.4998C362.174 32.1668 360.508 31.8328 358.841 31.4998C355.719 28.4318 352.052 26.0978 347.841 24.4998C338.389 22.2818 329.389 18.9488 320.841 14.4998C310.195 11.8348 299.528 9.16776 288.841 6.49976C283.518 6.00076 278.185 5.83376 272.841 5.99976C272.174 5.33276 271.508 4.66676 270.841 3.99976C277.472 4.83076 284.139 5.16376 290.841 4.99976C291.799 4.54676 292.633 3.88076 293.341 2.99976C294.015 4.07776 295.015 4.74476 296.341 4.99976C303.076 5.93476 309.576 7.60076 315.841 9.99976Z"
        fill="#F7DAB5" />
    <path opacity="0.902" fill-rule="evenodd" clip-rule="evenodd"
        d="M176.841 9.99976C176.841 10.9998 176.841 11.9998 176.841 12.9998C172.082 13.9528 167.415 15.1198 162.841 16.4998C159.391 19.4488 155.391 20.6158 150.841 19.9998C147.736 21.2118 144.736 22.7118 141.841 24.4998C140.207 24.9938 138.54 25.1598 136.841 24.9998C136.811 24.0028 137.311 23.3358 138.341 22.9998C150.638 17.0358 163.472 12.7028 176.841 9.99976Z"
        fill="#F6D2A5" />
    <path fill-rule="evenodd" clip-rule="evenodd"
        d="M285.841 28.9998C260.243 25.3498 234.576 25.0158 208.841 27.9998C212.362 27.1288 216.029 26.2948 219.841 25.4998C237.841 24.8328 255.841 24.8328 273.841 25.4998C278.134 26.1438 282.134 27.3098 285.841 28.9998Z"
        fill="#6E6E6E" />
    <path fill-rule="evenodd" clip-rule="evenodd"
        d="M285.841 28.9998C289.879 29.4578 293.879 30.1238 297.841 30.9998C297.952 31.6168 298.285 32.1168 298.841 32.4998C301.548 32.8948 304.214 33.3948 306.841 33.9998C309.841 34.6668 312.841 35.3328 315.841 35.9998C317.736 37.7408 320.069 38.7408 322.841 38.9998C324.906 39.0168 326.906 39.3498 328.841 39.9998C332.072 41.2898 335.072 43.1238 337.841 45.4998C341.31 47.2318 344.977 48.3978 348.841 48.9998C356.938 54.2048 365.271 59.3718 373.841 64.4998C379.345 68.5098 384.678 72.6768 389.841 76.9998C391.58 79.7428 393.914 81.7428 396.841 82.9998C412.721 97.8768 426.388 114.544 437.841 133C439.221 138.487 441.221 143.82 443.841 149C444.606 150.112 445.606 150.779 446.841 151C446.841 151.333 446.841 151.667 446.841 152C448.414 157.736 450.747 163.069 453.841 168C454.406 172.037 455.74 175.703 457.841 179C458.19 184.067 459.023 189.067 460.341 194C460.619 194.916 461.119 195.582 461.841 196C461.841 197.333 461.841 198.667 461.841 200C462.167 206.102 463 212.102 464.341 218C464.841 228.328 465.007 238.661 464.841 249C464.841 250.333 464.841 251.667 464.841 253C464.119 253.418 463.619 254.084 463.341 255C462.282 264.345 461.115 273.679 459.841 283C459.841 283.667 459.841 284.333 459.841 285C458.002 287.153 457.002 289.82 456.841 293C456.149 297.391 455.149 301.724 453.841 306C452.554 309.905 450.554 313.571 447.841 317C446.743 320.381 445.743 323.715 444.841 327C439.451 334.22 434.784 341.887 430.841 350C427.458 354.053 424.458 358.386 421.841 363C418.821 365.023 416.487 367.69 414.841 371C413.841 372.333 412.841 373.667 411.841 375C406.508 379.667 401.508 384.667 396.841 390C394.252 390.919 392.252 392.586 390.841 395C381.879 402.151 372.546 408.818 362.841 415C359.153 416.594 355.82 418.76 352.841 421.5C351.187 422.108 349.52 422.608 347.841 423C340.27 426.068 332.937 429.401 325.841 433C323.64 434.066 321.306 434.733 318.841 435C316.54 435.56 314.207 436.06 311.841 436.5C311.285 436.883 310.952 437.383 310.841 438C308.229 438.871 305.562 439.537 302.841 440C290.875 442.668 278.875 444.668 266.841 446C249.158 446.214 231.491 445.881 213.841 445C213.508 445 213.174 445 212.841 445C212.423 444.278 211.757 443.778 210.841 443.5C206.855 443.001 202.855 442.834 198.841 443C195.046 442.81 191.713 441.81 188.841 440C184.086 438.142 179.086 436.809 173.841 436C172.224 435.462 170.557 435.129 168.841 435C167.446 433.121 165.446 432.121 162.841 432C154.536 428.517 146.203 425.017 137.841 421.5C102.617 401.448 74.2838 373.948 52.8408 339C51.2668 334.18 48.9338 329.847 45.8408 326C45.8408 325.667 45.8408 325.333 45.8408 325C44.1808 321.493 42.5138 318.16 40.8408 315C40.8408 314.333 40.8408 313.667 40.8408 313C40.5858 310.533 39.5858 308.533 37.8408 307C37.7268 304.782 37.0608 302.782 35.8408 301C32.9718 289.971 30.3058 278.971 27.8408 268C28.1248 266.085 27.7918 264.419 26.8408 263C26.0138 250.018 25.6798 237.018 25.8408 224C25.9338 217.588 26.6008 211.255 27.8408 205C29.5778 200.958 30.5778 196.624 30.8408 192C32.0988 184.165 33.9318 176.499 36.3408 169C39.3668 161.819 42.5328 154.819 45.8408 148C47.4288 146.387 48.4288 144.387 48.8408 142C50.4978 138.687 52.1638 135.353 53.8408 132C55.8628 129.969 57.5298 127.635 58.8408 125C58.8408 124.667 58.8408 124.333 58.8408 124C61.9158 121.59 64.2488 118.59 65.8408 115C67.7758 110.793 70.4428 107.127 73.8408 104C76.6378 103.533 77.9718 101.867 77.8408 98.9998C83.5348 92.6398 89.5348 86.6398 95.8408 80.9998C96.8928 81.1488 97.8928 80.9828 98.8408 80.4998C101.915 77.6508 104.915 74.8168 107.841 71.9998C109.174 70.9998 110.508 69.9998 111.841 68.9998C114.476 68.0268 116.476 66.3598 117.841 63.9998C122.098 62.2018 126.098 59.8678 129.841 56.9998C132.488 56.5708 134.488 55.2378 135.841 52.9998C158.324 39.9438 182.657 31.6098 208.841 27.9998C234.576 25.0158 260.243 25.3498 285.841 28.9998Z"
        fill="#010101" />
    <path fill-rule="evenodd" clip-rule="evenodd"
        d="M297.841 30.9998C300.468 31.6048 303.134 32.1048 305.841 32.4998C306.397 32.8828 306.73 33.3828 306.841 33.9998C304.214 33.3948 301.548 32.8948 298.841 32.4998C298.285 32.1168 297.952 31.6168 297.841 30.9998Z"
        fill="#585858" />
    <path opacity="0.478" fill-rule="evenodd" clip-rule="evenodd"
        d="M136.841 24.9998C136.83 26.5168 136.164 27.6838 134.841 28.4998C131.262 30.2538 127.595 31.7538 123.841 32.9998C121.91 35.3038 119.577 37.1378 116.841 38.4998C112.707 39.7378 108.707 41.2378 104.841 42.9998C108.93 39.3448 113.43 36.0118 118.341 32.9998C123.366 30.9038 128.2 28.4038 132.841 25.4998C134.134 25.0098 135.468 24.8428 136.841 24.9998Z"
        fill="#F4CDA0" />
    <path fill-rule="evenodd" clip-rule="evenodd"
        d="M315.841 35.9998C318.613 36.2588 320.946 37.2588 322.841 38.9998C320.069 38.7408 317.736 37.7408 315.841 35.9998Z"
        fill="#595959" />
    <path opacity="0.996" fill-rule="evenodd" clip-rule="evenodd"
        d="M150.841 19.9998C151.055 21.6438 150.721 23.1438 149.841 24.4998C143.939 26.7468 137.939 28.9128 131.841 30.9998C125.914 35.4058 119.747 39.7388 113.341 43.9998C108.928 44.9528 105.761 47.4528 103.841 51.4998C102.174 51.8328 100.508 52.1668 98.8408 52.4998C94.1228 56.1878 89.1228 59.3548 83.8408 61.9998C84.1738 60.6668 84.5078 59.3328 84.8408 57.9998C88.7108 58.0598 91.3778 56.3938 92.8408 52.9998C95.8408 51.3328 98.8408 49.6668 101.841 47.9998C103.619 46.7738 104.619 45.1068 104.841 42.9998C108.707 41.2378 112.707 39.7378 116.841 38.4998C119.577 37.1378 121.91 35.3038 123.841 32.9998C127.595 31.7538 131.262 30.2538 134.841 28.4998C136.164 27.6838 136.83 26.5168 136.841 24.9998C138.54 25.1598 140.207 24.9938 141.841 24.4998C144.736 22.7118 147.736 21.2118 150.841 19.9998Z"
        fill="#F7E6D8" />
    <path fill-rule="evenodd" clip-rule="evenodd"
        d="M328.841 39.9998C333.634 40.1478 337.8 41.8148 341.341 44.9998C342.567 44.8548 343.734 44.5218 344.841 43.9998C345.493 46.3078 346.826 47.9748 348.841 48.9998C344.977 48.3978 341.31 47.2318 337.841 45.4998C335.072 43.1238 332.072 41.2898 328.841 39.9998Z"
        fill="#B5B4B3" />
    <path opacity="0.318" fill-rule="evenodd" clip-rule="evenodd"
        d="M388.841 44.9998C392.45 46.4738 395.784 48.4738 398.841 50.9998C400.046 52.0768 400.713 53.4098 400.841 54.9998C397.466 53.1938 394.133 51.1938 390.841 48.9998C389.636 47.9228 388.969 46.5898 388.841 44.9998Z"
        fill="#EFC08B" />
    <path opacity="0.459" fill-rule="evenodd" clip-rule="evenodd"
        d="M104.841 42.9998C104.619 45.1068 103.619 46.7738 101.841 47.9998C98.8408 49.6668 95.8408 51.3328 92.8408 52.9998C91.3778 56.3938 88.7108 58.0598 84.8408 57.9998C87.7908 54.0578 91.4568 50.7248 95.8408 47.9998C98.7548 46.0458 101.755 44.3798 104.841 42.9998Z"
        fill="#F7C895" />
    <path fill-rule="evenodd" clip-rule="evenodd"
        d="M135.841 52.9998C134.488 55.2378 132.488 56.5708 129.841 56.9998C131.375 55.1308 133.375 53.7978 135.841 52.9998Z"
        fill="#686868" />
    <path fill-rule="evenodd" clip-rule="evenodd"
        d="M117.841 63.9998C116.476 66.3598 114.476 68.0268 111.841 68.9998C113.232 66.6098 115.232 64.9428 117.841 63.9998Z"
        fill="#50544C" />
    <path opacity="0.247" fill-rule="evenodd" clip-rule="evenodd"
        d="M403.841 55.9998C419.481 67.8158 432.815 81.8158 443.841 97.9998C442.174 97.9998 440.508 97.9998 438.841 97.9998C437.654 93.9638 435.654 90.2978 432.841 86.9998C426.174 80.3328 419.508 73.6668 412.841 66.9998C407.175 65.3488 404.175 61.6818 403.841 55.9998Z"
        fill="#EDCBA3" />
    <path fill-rule="evenodd" clip-rule="evenodd"
        d="M389.841 76.9998C392.768 78.2568 395.102 80.2568 396.841 82.9998C393.914 81.7428 391.58 79.7428 389.841 76.9998Z"
        fill="#828282" />
    <path fill-rule="evenodd" clip-rule="evenodd"
        d="M107.841 71.9998C104.915 74.8168 101.915 77.6508 98.8408 80.4998C97.8928 80.9828 96.8928 81.1488 95.8408 80.9998C99.2698 77.2378 103.27 74.2378 107.841 71.9998Z"
        fill="#515151" />
    <path opacity="0.424" fill-rule="evenodd" clip-rule="evenodd"
        d="M84.8408 57.9998C84.5078 59.3328 84.1738 60.6668 83.8408 61.9998C81.4248 64.5998 79.0918 67.4328 76.8408 70.4998C72.6248 71.5848 69.9578 74.2508 68.8408 78.4998C65.8608 78.9898 63.5278 80.4898 61.8408 82.9998C61.3768 86.5378 59.8768 89.5378 57.3408 91.9998C53.8658 95.6038 50.8658 99.6038 48.3408 104C46.7258 104.886 45.2258 105.886 43.8408 107C41.8248 107.986 40.4918 109.653 39.8408 112C38.9238 112.627 37.9238 112.961 36.8408 113C49.0088 91.2668 65.0088 72.9328 84.8408 57.9998Z"
        fill="#F8D3A8" />
    <path fill-rule="evenodd" clip-rule="evenodd"
        d="M77.8408 98.9998C77.9718 101.867 76.6378 103.533 73.8408 104C75.2048 102.309 76.5378 100.642 77.8408 98.9998Z"
        fill="#4F4F4F" />
    <path opacity="0.216" fill-rule="evenodd" clip-rule="evenodd"
        d="M443.841 97.9998C447.146 100.594 449.479 103.928 450.841 108C445.782 106.604 443.449 103.27 443.841 97.9998Z"
        fill="#E4C299" />
    <path fill-rule="evenodd" clip-rule="evenodd"
        d="M187.841 119C178.422 117.403 169.089 117.736 159.841 120C159.952 119.383 160.285 118.883 160.841 118.5C165.803 117.627 170.803 117.127 175.841 117C180.118 116.837 184.118 117.503 187.841 119Z"
        fill="#6A6A6A" />
    <path fill-rule="evenodd" clip-rule="evenodd"
        d="M330.841 118C324.983 117.678 319.316 118.011 313.841 119C312.508 119 311.174 119 309.841 119C308.732 119.057 307.732 119.39 306.841 120C308.29 118.336 310.29 117.502 312.841 117.5C319.022 116.681 325.022 116.847 330.841 118Z"
        fill="#505050" />
    <path fill-rule="evenodd" clip-rule="evenodd"
        d="M65.8408 115C64.2488 118.59 61.9158 121.59 58.8408 124C60.4718 120.379 62.8058 117.379 65.8408 115Z"
        fill="#5E605E" />
    <path fill-rule="evenodd" clip-rule="evenodd"
        d="M187.841 119C197.442 121.969 205.775 126.969 212.841 134C214.098 136.927 216.098 139.261 218.841 141C222.675 145.344 226.008 150.01 228.841 155C229.356 158.799 231.022 161.799 233.841 164C233.841 164.667 234.174 165 234.841 165C234.351 169.451 235.685 173.117 238.841 176C238.841 176.333 238.841 176.667 238.841 177C240.908 182.429 242.241 188.096 242.841 194C243.005 196.687 242.838 199.354 242.341 202C241.313 200.139 239.813 198.805 237.841 198C237.09 198.876 236.59 199.876 236.341 201C233.973 198.646 231.306 196.646 228.341 195C228.092 196.124 227.592 197.124 226.841 198C225.401 196.548 223.735 195.548 221.841 195C221.174 194.667 220.508 194.333 219.841 194C216.537 189.916 212.204 187.583 206.841 187C197.574 185.106 188.574 185.773 179.841 189C175.193 189.011 171.86 191.011 169.841 195C167.252 195.919 165.252 197.586 163.841 200C159.663 202.519 156.996 206.186 155.841 211C152.635 214.41 150.302 218.41 148.841 223C147.178 224.938 146.512 227.272 146.841 230C144.467 233.186 143.467 236.853 143.841 241C143.073 241.763 142.573 242.763 142.341 244C141.517 253.509 141.683 262.843 142.841 272C142.997 276.971 143.997 281.638 145.841 286C145.841 286.667 145.841 287.333 145.841 288C146.478 290.956 146.978 293.956 147.341 297C147.577 298.619 148.41 299.619 149.841 300C151.178 303.361 152.178 306.861 152.841 310.5C152.782 311.936 152.449 313.269 151.841 314.5C152.174 314.667 152.508 314.833 152.841 315C153.622 313.771 154.122 312.438 154.341 311C156.113 312.49 156.28 314.157 154.841 316C159.459 318.891 160.959 322.891 159.341 328C160.501 332.839 162.334 337.339 164.841 341.5C164.174 341.833 163.508 342.167 162.841 342.5C163.965 342.749 164.965 343.249 165.841 344C166.43 346.776 167.763 349.11 169.841 351C168.673 352.717 167.006 353.384 164.841 353C163.508 353 162.174 353 160.841 353C154.619 350.596 148.619 347.596 142.841 344C139.162 339.822 135.329 335.822 131.341 332C127.621 325.273 123.455 318.94 118.841 313C117.247 307.55 114.914 302.55 111.841 298C107.185 283.388 104.185 268.388 102.841 253C102.248 235.22 103.248 217.553 105.841 200C105.557 198.085 105.89 196.419 106.841 195C109.381 190.436 110.715 185.436 110.841 180C110.841 179.667 110.841 179.333 110.841 179C113.766 176.025 115.433 172.358 115.841 168C115.944 164.864 116.944 162.198 118.841 160C121.296 157.868 122.962 155.201 123.841 152C125.21 147.905 127.544 144.572 130.841 142C133.508 140.327 135.508 137.993 136.841 135C136.841 134.333 137.174 134 137.841 134C140.09 133.42 141.756 132.087 142.841 130C143.633 128.243 144.966 126.909 146.841 126C150.841 123.252 155.174 121.252 159.841 120C169.089 117.736 178.422 117.403 187.841 119Z"
        fill="#E9E9E9" />
    <path fill-rule="evenodd" clip-rule="evenodd"
        d="M309.841 119C311.174 119 312.508 119 313.841 119C320.157 118.356 326.157 119.356 331.841 122C333.327 121.603 334.827 121.27 336.341 121C341.86 123.775 347.36 126.442 352.841 129C357.372 131.41 361.039 134.743 363.841 139C364.76 141.589 366.427 143.589 368.841 145C369.421 147.249 370.754 148.915 372.841 150C373.55 154.151 375.55 157.484 378.841 160C380.384 162.428 381.384 165.094 381.841 168C382.746 172.76 384.413 177.093 386.841 181C386.841 181.667 387.174 182 387.841 182C388.19 187.067 389.023 192.067 390.341 197C390.724 197.556 391.224 197.889 391.841 198C391.841 198.667 391.841 199.333 391.841 200C394.572 216.102 395.572 232.436 394.841 249C393.435 249.473 392.768 250.473 392.841 252C389.003 243.677 384.503 235.677 379.341 228C375.841 225.833 373.008 223 370.841 219.5C365.031 215.089 358.698 211.423 351.841 208.5C349.954 207.72 348.287 207.887 346.841 209C346.547 207.224 346.381 205.224 346.341 203C345.858 203.948 345.692 204.948 345.841 206C342.924 206.135 340.257 205.468 337.841 204C330.71 196.024 322.043 190.357 311.841 187C311.423 186.278 310.757 185.778 309.841 185.5C304.508 184.833 299.174 184.833 293.841 185.5C292.925 185.778 292.259 186.278 291.841 187C288.445 188.341 285.111 189.674 281.841 191C278.45 192.029 275.784 194.029 273.841 197C265.871 203.313 260.205 211.313 256.841 221C254.977 223.008 253.311 225.341 251.841 228C250.677 221.693 250.51 215.359 251.341 209C252.592 204.407 253.426 199.741 253.841 195C253.841 194 253.841 193 253.841 192C254.458 191.889 254.958 191.556 255.341 191C255.836 189.027 256.003 187.027 255.841 185C256.106 181.663 257.106 178.663 258.841 176C260.454 174.039 261.454 171.706 261.841 169C262.508 167.333 263.174 165.667 263.841 164C266.615 159.022 270.115 154.355 274.341 150C275.469 148.155 275.969 146.155 275.841 144C281.958 138.055 288.291 132.221 294.841 126.5C297.772 124.805 300.939 123.638 304.341 123C306.367 121.765 308.201 120.432 309.841 119Z"
        fill="#E9E9E9" />
    <path fill-rule="evenodd" clip-rule="evenodd"
        d="M313.841 119C319.316 118.011 324.983 117.678 330.841 118C336.845 119.523 342.678 121.857 348.341 125C350.04 126.204 351.54 127.538 352.841 129C347.36 126.442 341.86 123.775 336.341 121C334.827 121.27 333.327 121.603 331.841 122C326.157 119.356 320.157 118.356 313.841 119Z"
        fill="#CACACA" />
    <path opacity="0.627" fill-rule="evenodd" clip-rule="evenodd"
        d="M36.8408 113C36.9978 114.373 36.8308 115.707 36.3408 117C33.5398 120.204 31.5398 123.871 30.3408 128C29.5248 129.323 28.3578 129.989 26.8408 130C26.6838 128.627 26.8508 127.293 27.3408 126C29.8018 122.973 31.8018 119.64 33.3408 116C34.0998 114.437 35.2668 113.437 36.8408 113Z"
        fill="#F6CA98" />
    <path fill-rule="evenodd" clip-rule="evenodd"
        d="M58.8408 125C57.5298 127.635 55.8628 129.969 53.8408 132C54.4098 128.781 56.0768 126.448 58.8408 125Z"
        fill="#7F7F7F" />
    <path fill-rule="evenodd" clip-rule="evenodd"
        d="M309.841 119C308.201 120.432 306.367 121.765 304.341 123C300.939 123.638 297.772 124.805 294.841 126.5C288.291 132.221 281.958 138.055 275.841 144C283.607 132.554 293.94 124.554 306.841 120C307.732 119.39 308.732 119.057 309.841 119Z"
        fill="#959595" />
    <path fill-rule="evenodd" clip-rule="evenodd"
        d="M142.841 130C141.756 132.087 140.09 133.42 137.841 134C138.926 131.913 140.592 130.58 142.841 130Z"
        fill="#8B8B8B" />
    <path fill-rule="evenodd" clip-rule="evenodd"
        d="M212.841 134C215.584 135.739 217.584 138.073 218.841 141C216.098 139.261 214.098 136.927 212.841 134Z"
        fill="#808080" />
    <path fill-rule="evenodd" clip-rule="evenodd"
        d="M136.841 135C135.508 137.993 133.508 140.327 130.841 142C132.174 139.007 134.174 136.673 136.841 135Z"
        fill="#868686" />
    <path opacity="0.878" fill-rule="evenodd" clip-rule="evenodd"
        d="M450.841 108C453.455 110.634 455.788 113.634 457.841 117C468.994 136.916 477.661 157.25 483.841 178C483.717 178.607 483.384 178.94 482.841 179C481.732 178.21 480.399 177.71 478.841 177.5C478.215 176.75 477.715 175.916 477.341 175C477.008 171 476.674 167 476.341 163C474.956 161.949 473.956 160.616 473.341 159C471.886 154.417 470.719 149.751 469.841 145C464.758 139.496 461.258 133.163 459.341 126C455.596 121.83 452.929 117.164 451.341 112C450.851 110.707 450.684 109.373 450.841 108Z"
        fill="#E3C6A6" />
    <path fill-rule="evenodd" clip-rule="evenodd"
        d="M43.8408 107C42.5228 112.296 39.6898 116.63 35.3408 120C33.9158 124.611 31.9158 128.944 29.3408 133C27.5558 136.53 27.7218 139.863 29.8408 143C28.5458 144.828 27.5458 146.828 26.8408 149C25.9548 148.175 25.6218 147.175 25.8408 146C24.5078 146 23.1738 146 21.8408 146C22.0028 148.027 21.8358 150.027 21.3408 152C19.2948 154.2 18.2948 156.867 18.3408 160C16.0018 163.925 14.1688 167.925 12.8408 172C13.3248 164.788 14.6578 157.788 16.8408 151C18.8228 148.203 20.8228 145.203 22.8408 142C23.9918 137.881 25.3248 133.881 26.8408 130C28.3578 129.989 29.5248 129.323 30.3408 128C31.5398 123.871 33.5398 120.204 36.3408 117C36.8308 115.707 36.9978 114.373 36.8408 113C37.9238 112.961 38.9238 112.627 39.8408 112C40.4918 109.653 41.8248 107.986 43.8408 107Z"
        fill="#F4E7D7" />
    <path fill-rule="evenodd" clip-rule="evenodd"
        d="M363.841 139C366.255 140.411 367.922 142.411 368.841 145C366.427 143.589 364.76 141.589 363.841 139Z"
        fill="#8F8F8F" />
    <path fill-rule="evenodd" clip-rule="evenodd"
        d="M437.841 133C440.827 138.926 443.827 144.926 446.841 151C445.606 150.779 444.606 150.112 443.841 149C441.221 143.82 439.221 138.487 437.841 133Z"
        fill="#353636" />
    <path fill-rule="evenodd" clip-rule="evenodd"
        d="M48.8408 142C48.4288 144.387 47.4288 146.387 45.8408 148C45.9618 145.395 46.9618 143.395 48.8408 142Z"
        fill="#535353" />
    <path opacity="0.151" fill-rule="evenodd" clip-rule="evenodd"
        d="M26.8408 130C25.3248 133.881 23.9918 137.881 22.8408 142C20.8228 145.203 18.8228 148.203 16.8408 151C18.1058 145.801 19.9388 140.801 22.3408 136C23.5828 133.641 25.0828 131.641 26.8408 130Z"
        fill="#EFC389" />
    <path fill-rule="evenodd" clip-rule="evenodd"
        d="M368.841 145C370.928 146.085 372.261 147.751 372.841 150C370.754 148.915 369.421 147.249 368.841 145Z"
        fill="#7C7C7C" />
    <path fill-rule="evenodd" clip-rule="evenodd"
        d="M275.841 144C275.969 146.155 275.469 148.155 274.341 150C270.115 154.355 266.615 159.022 263.841 164C266.549 156.523 270.549 149.856 275.841 144Z"
        fill="#A1A1A1" />
    <path fill-rule="evenodd" clip-rule="evenodd"
        d="M372.841 150C375.023 153.193 377.023 156.526 378.841 160C375.55 157.484 373.55 154.151 372.841 150Z"
        fill="#919191" />
    <path fill-rule="evenodd" clip-rule="evenodd"
        d="M123.841 152C122.962 155.201 121.296 157.868 118.841 160C119.795 156.749 121.461 154.082 123.841 152Z"
        fill="#797979" />
    <path fill-rule="evenodd" clip-rule="evenodd"
        d="M446.841 152C450.176 156.691 452.51 162.024 453.841 168C450.747 163.069 448.414 157.736 446.841 152Z"
        fill="#4B4B4B" />
    <path fill-rule="evenodd" clip-rule="evenodd"
        d="M228.841 155C230.868 157.72 232.534 160.72 233.841 164C231.022 161.799 229.356 158.799 228.841 155Z"
        fill="#858585" />
    <path fill-rule="evenodd" clip-rule="evenodd"
        d="M234.841 165C236.057 168.607 237.39 172.274 238.841 176C235.685 173.117 234.351 169.451 234.841 165Z"
        fill="#8F8F8F" />
    <path fill-rule="evenodd" clip-rule="evenodd"
        d="M115.841 168C115.433 172.358 113.766 176.025 110.841 179C112.227 175.027 113.894 171.361 115.841 168Z"
        fill="#A3A3A3" />
    <path fill-rule="evenodd" clip-rule="evenodd"
        d="M381.841 168C384.783 171.688 386.45 176.021 386.841 181C384.413 177.093 382.746 172.76 381.841 168Z"
        fill="#9D9D9D" />
    <path fill-rule="evenodd" clip-rule="evenodd"
        d="M261.841 169C261.454 171.706 260.454 174.039 258.841 176C258.984 173.115 259.984 170.782 261.841 169Z"
        fill="#858585" />
    <path fill-rule="evenodd" clip-rule="evenodd"
        d="M311.841 187C305.169 185.726 298.502 185.726 291.841 187C292.259 186.278 292.925 185.778 293.841 185.5C299.174 184.833 304.508 184.833 309.841 185.5C310.757 185.778 311.423 186.278 311.841 187Z"
        fill="#7B7B7B" />
    <path fill-rule="evenodd" clip-rule="evenodd"
        d="M206.841 187C212.204 187.583 216.537 189.916 219.841 194C215.325 191.842 210.992 189.509 206.841 187Z"
        fill="#8E8E8E" />
    <path fill-rule="evenodd" clip-rule="evenodd"
        d="M387.841 182C389.995 186.951 391.328 192.285 391.841 198C391.224 197.889 390.724 197.556 390.341 197C389.023 192.067 388.19 187.067 387.841 182Z"
        fill="#969696" />
    <path opacity="0.118" fill-rule="evenodd" clip-rule="evenodd"
        d="M484.841 183C485.345 185.953 486.345 188.786 487.841 191.5C487.297 192.217 486.63 192.717 485.841 193C483.841 189.726 483.508 186.392 484.841 183Z"
        fill="#C08A63" />
    <path fill-rule="evenodd" clip-rule="evenodd"
        d="M110.841 180C110.715 185.436 109.381 190.436 106.841 195C107.033 190.23 107.866 185.564 109.341 181C109.724 180.444 110.224 180.111 110.841 180Z"
        fill="#A3A3A3" />
    <path fill-rule="evenodd" clip-rule="evenodd"
        d="M179.841 189C176.315 190.493 172.982 192.493 169.841 195C171.86 191.011 175.193 189.011 179.841 189Z"
        fill="#767676" />
    <path fill-rule="evenodd" clip-rule="evenodd"
        d="M238.841 177C240.314 179.083 241.481 181.416 242.341 184C242.951 187.327 243.451 190.661 243.841 194C243.508 194 243.174 194 242.841 194C242.241 188.096 240.908 182.429 238.841 177Z"
        fill="#8D8D8D" />
    <path fill-rule="evenodd" clip-rule="evenodd"
        d="M255.841 185C256.003 187.027 255.836 189.027 255.341 191C254.958 191.556 254.458 191.889 253.841 192C253.751 189.348 254.417 187.015 255.841 185Z"
        fill="#8A8A8A" />
    <path fill-rule="evenodd" clip-rule="evenodd"
        d="M281.841 191C279.541 193.484 276.874 195.484 273.841 197C275.784 194.029 278.45 192.029 281.841 191Z"
        fill="#5E5E5E" />
    <path fill-rule="evenodd" clip-rule="evenodd"
        d="M242.841 194C243.174 194 243.508 194 243.841 194C245.885 199.682 246.885 205.682 246.841 212C247.168 216.714 246.834 221.38 245.841 226C244.889 224.455 244.556 222.788 244.841 221C243.508 221 242.174 221 240.841 221C239.833 218.956 238.833 216.956 237.841 215C236.636 212.266 235.136 209.599 233.341 207C229.304 203.131 225.471 199.131 221.841 195C223.735 195.548 225.401 196.548 226.841 198C227.592 197.124 228.092 196.124 228.341 195C231.306 196.646 233.973 198.646 236.341 201C236.59 199.876 237.09 198.876 237.841 198C239.813 198.805 241.313 200.139 242.341 202C242.838 199.354 243.005 196.687 242.841 194Z"
        fill="#D4D4D4" />
    <path fill-rule="evenodd" clip-rule="evenodd"
        d="M457.841 179C460.247 184.296 461.58 189.963 461.841 196C461.119 195.582 460.619 194.916 460.341 194C459.023 189.067 458.19 184.067 457.841 179Z"
        fill="#707070" />
    <path fill-rule="evenodd" clip-rule="evenodd"
        d="M30.8408 192C30.5778 196.624 29.5778 200.958 27.8408 205C27.8918 200.313 28.8918 195.979 30.8408 192Z"
        fill="#424242" />
    <path opacity="0.063" fill-rule="evenodd" clip-rule="evenodd"
        d="M16.8408 151C14.6578 157.788 13.3248 164.788 12.8408 172C11.0868 175.823 9.75381 179.823 8.84081 184C8.22381 184.111 7.72381 184.444 7.34081 185C6.73281 188.714 5.89881 192.38 4.84081 196C4.46181 203.157 3.62881 210.157 2.34081 217C2.17381 224 2.00781 231 1.84081 238C1.84381 245.367 2.51081 252.367 3.84081 259C3.99881 262.402 3.66481 265.736 2.84081 269C-3.45419 229.195 0.71281 190.195 15.3408 152C15.7238 151.444 16.2238 151.111 16.8408 151Z"
        fill="#EFC084" />
    <path fill-rule="evenodd" clip-rule="evenodd"
        d="M163.841 200C161.113 203.712 158.447 207.378 155.841 211C156.996 206.186 159.663 202.519 163.841 200Z"
        fill="#636363" />
    <path fill-rule="evenodd" clip-rule="evenodd"
        d="M346.841 209C348.287 207.887 349.954 207.72 351.841 208.5C358.698 211.423 365.031 215.089 370.841 219.5C373.008 223 375.841 225.833 379.341 228C384.503 235.677 389.003 243.677 392.841 252C393.241 258.142 392.574 264.142 390.841 270C388.074 257.172 382.907 245.505 375.341 235C370.987 229.146 365.821 224.146 359.841 220C358.69 218.769 357.524 218.769 356.341 220C354.325 217.816 352.158 215.816 349.841 214C347.393 215.49 345.726 214.823 344.841 212C346.174 211.333 347.508 210.667 348.841 210C348.384 209.202 347.717 208.869 346.841 209Z"
        fill="#DBDBDB" />
    <path opacity="0.102" fill-rule="evenodd" clip-rule="evenodd"
        d="M487.841 206C490.289 209.437 490.956 213.103 489.841 217C488.438 213.591 487.771 209.925 487.841 206Z"
        fill="#B38D5E" />
    <path fill-rule="evenodd" clip-rule="evenodd"
        d="M237.841 215C238.833 216.956 239.833 218.956 240.841 221C242.416 223.047 243.416 225.381 243.841 228C240.698 224.258 238.698 219.925 237.841 215Z"
        fill="#404040" />
    <path opacity="0.493" fill-rule="evenodd" clip-rule="evenodd"
        d="M8.84082 184C4.42782 208.737 2.76082 233.737 3.84082 259C2.51082 252.367 1.84382 245.367 1.84082 238C2.00782 231 2.17382 224 2.34082 217C3.62882 210.157 4.46182 203.157 4.84082 196C5.89882 192.38 6.73282 188.714 7.34082 185C7.72382 184.444 8.22382 184.111 8.84082 184Z"
        fill="#FBE3C0" />
    <path opacity="0.486" fill-rule="evenodd" clip-rule="evenodd"
        d="M482.841 180C484.247 180.473 484.914 181.473 484.841 183C483.508 186.392 483.841 189.726 485.841 193C488.326 197.084 488.992 201.418 487.841 206C487.771 209.925 488.438 213.591 489.841 217C489.841 219 489.841 221 489.841 223C488.508 232.333 488.508 241.667 489.841 251C489.841 252 489.841 253 489.841 254C488.732 254.057 487.732 254.39 486.841 255C487.007 244.661 486.841 234.328 486.341 224C485.191 214.709 484.525 205.376 484.341 196C481.909 190.695 481.409 185.362 482.841 180Z"
        fill="#F4E0C9" />
    <path fill-rule="evenodd" clip-rule="evenodd"
        d="M345.841 217C349.265 218.027 352.599 219.36 355.841 221C356.622 222.229 357.122 223.562 357.341 225C376.141 241.593 385.974 262.259 386.841 287C387.174 286.167 387.508 285.333 387.841 284.5C387.216 282.659 387.049 280.826 387.341 279C387.755 279.457 388.255 279.791 388.841 280C389.398 278.168 390.398 276.835 391.841 276C390.829 280.016 389.829 284.016 388.841 288C386.935 291.483 385.269 295.15 383.841 299C383.129 300.239 382.129 300.739 380.841 300.5C381.296 293.249 381.629 285.916 381.841 278.5C380.695 277.741 379.695 277.074 378.841 276.5C379.252 275.356 379.585 274.189 379.841 273C376.432 256.67 368.765 242.837 356.841 231.5C355.44 231.09 354.107 230.59 352.841 230C352.499 229.162 351.833 228.828 350.841 229C349.779 224.758 348.112 220.758 345.841 217Z"
        fill="#BFBFBF" />
    <path fill-rule="evenodd" clip-rule="evenodd"
        d="M346.841 209C347.717 208.869 348.384 209.202 348.841 210C347.508 210.667 346.174 211.333 344.841 212C345.726 214.823 347.393 215.49 349.841 214C352.158 215.816 354.325 217.816 356.341 220C357.524 218.769 358.69 218.769 359.841 220C365.821 224.146 370.987 229.146 375.341 235C382.907 245.505 388.074 257.172 390.841 270C392.574 264.142 393.241 258.142 392.841 252C392.768 250.473 393.435 249.473 394.841 249C394.841 249.333 394.841 249.667 394.841 250C394.281 258.724 393.281 267.391 391.841 276C390.398 276.835 389.398 278.168 388.841 280C388.255 279.791 387.755 279.457 387.341 279C387.049 280.826 387.216 282.659 387.841 284.5C387.508 285.333 387.174 286.167 386.841 287C385.974 262.259 376.141 241.593 357.341 225C357.122 223.562 356.622 222.229 355.841 221C352.599 219.36 349.265 218.027 345.841 217C343.94 212.198 341.273 207.864 337.841 204C340.257 205.468 342.924 206.135 345.841 206C345.692 204.948 345.858 203.948 346.341 203C346.381 205.224 346.547 207.224 346.841 209Z"
        fill="#CACACA" />
    <path fill-rule="evenodd" clip-rule="evenodd"
        d="M148.841 223C148.62 225.567 147.953 227.901 146.841 230C146.512 227.272 147.178 224.938 148.841 223Z"
        fill="#828282" />
    <path fill-rule="evenodd" clip-rule="evenodd"
        d="M105.841 200C103.248 217.553 102.248 235.22 102.841 253C101.68 239.173 101.514 225.173 102.341 211C103.264 207.187 104.431 203.521 105.841 200Z"
        fill="#818181" />
    <path fill-rule="evenodd" clip-rule="evenodd"
        d="M253.841 195C253.426 199.741 252.592 204.407 251.341 209C250.51 215.359 250.677 221.693 251.841 228C253.311 225.341 254.977 223.008 256.841 221C253.333 228.643 250.667 236.643 248.841 245C246.707 239.462 245.04 233.795 243.841 228C243.416 225.381 242.416 223.047 240.841 221C242.174 221 243.508 221 244.841 221C244.556 222.788 244.889 224.455 245.841 226C246.834 221.38 247.168 216.714 246.841 212C247.499 212.898 248.165 213.898 248.841 215C250.225 208.13 251.892 201.463 253.841 195Z"
        fill="#A2A2A2" />
    <path fill-rule="evenodd" clip-rule="evenodd"
        d="M391.841 200C392.458 200.111 392.958 200.444 393.341 201C395.982 217.372 396.482 233.705 394.841 250C394.841 249.667 394.841 249.333 394.841 249C395.572 232.436 394.572 216.102 391.841 200Z"
        fill="#6C6C6C" />
    <path fill-rule="evenodd" clip-rule="evenodd"
        d="M461.841 200C462.563 200.418 463.063 201.084 463.341 202C465.894 217.755 466.394 233.422 464.841 249C465.007 238.661 464.841 228.328 464.341 218C463 212.102 462.167 206.102 461.841 200Z"
        fill="#676767" />
    <path fill-rule="evenodd" clip-rule="evenodd"
        d="M25.8408 224C25.6798 237.018 26.0138 250.018 26.8408 263C25.5408 261.277 24.8738 259.11 24.8408 256.5C23.8548 246.345 23.6888 236.178 24.3408 226C24.6188 225.084 25.1188 224.418 25.8408 224Z"
        fill="#A4A4A4" />
    <path fill-rule="evenodd" clip-rule="evenodd"
        d="M352.841 230C354.107 230.59 355.44 231.09 356.841 231.5C368.765 242.837 376.432 256.67 379.841 273C379.585 274.189 379.252 275.356 378.841 276.5C379.695 277.074 380.695 277.741 381.841 278.5C381.629 285.916 381.296 293.249 380.841 300.5C382.129 300.739 383.129 300.239 383.841 299C383.841 299.333 383.841 299.667 383.841 300C381.752 305.175 379.419 310.175 376.841 315C375.029 314.729 373.363 314.062 371.841 313C375.597 297.338 375.43 281.671 371.341 266C368.173 257.523 364.173 249.523 359.341 242C356.597 243.564 355.764 243.064 356.841 240.5C354.917 237.19 353.583 233.69 352.841 230Z"
        fill="#B2B2B2" />
    <path opacity="0.201" fill-rule="evenodd" clip-rule="evenodd"
        d="M489.841 223C491.174 232.333 491.174 241.667 489.841 251C488.508 241.667 488.508 232.333 489.841 223Z"
        fill="#B2936A" />
    <path fill-rule="evenodd" clip-rule="evenodd"
        d="M350.841 229C351.833 228.828 352.499 229.162 352.841 230C353.583 233.69 354.917 237.19 356.841 240.5C355.764 243.064 356.597 243.564 359.341 242C364.173 249.523 368.173 257.523 371.341 266C375.43 281.671 375.597 297.338 371.841 313C373.363 314.062 375.029 314.729 376.841 315C376.841 315.333 376.841 315.667 376.841 316C374.391 318.129 372.724 320.796 371.841 324C364.404 333.603 355.737 342.103 345.841 349.5C334.741 354.701 323.075 356.367 310.841 354.5C308.688 354.401 307.022 353.567 305.841 352C309.12 352.992 312.453 353.159 315.841 352.5C313.04 350.524 310.873 348.024 309.341 345C309.008 345.333 308.674 345.667 308.341 346C305.114 343.212 302.614 339.879 300.841 336C305.982 336.155 310.982 335.488 315.841 334C316.642 337.509 318.642 338.842 321.841 338C323.037 338.346 323.037 338.846 321.841 339.5C328.68 342.056 335.68 342.556 342.841 341C344.256 338.119 346.59 336.453 349.841 336C350.356 334.275 351.023 332.608 351.841 331C354.576 333.455 356.076 332.789 356.341 329C355.448 330.211 354.615 330.211 353.841 329C354.174 328.667 354.508 328.333 354.841 328C356.073 327.355 357.406 327.189 358.841 327.5C358.384 327.086 358.05 326.586 357.841 326C360.359 316.278 363.026 306.778 365.841 297.5C362.937 294.06 362.603 290.56 364.841 287C364.674 286.333 364.508 285.667 364.341 285C363.687 286.196 363.187 286.196 362.841 285C364.261 281.512 363.927 278.178 361.841 275C362.508 274.333 363.174 273.667 363.841 273C362.394 270.054 360.394 267.554 357.841 265.5C359.129 265.527 360.129 264.527 360.841 262.5C359.144 259.842 357.477 257.342 355.841 255C356.006 251.318 355.84 247.652 355.341 244C355.063 243.084 354.563 242.418 353.841 242C353.149 237.609 352.149 233.276 350.841 229Z"
        fill="#A6A6A6" />
    <path fill-rule="evenodd" clip-rule="evenodd"
        d="M143.841 241C142.941 251.302 142.608 261.635 142.841 272C141.683 262.843 141.517 253.509 142.341 244C142.573 242.763 143.073 241.763 143.841 241Z"
        fill="#6D6D6D" />
    <path fill-rule="evenodd" clip-rule="evenodd"
        d="M355.841 255C357.477 257.342 359.144 259.842 360.841 262.5C360.129 264.527 359.129 265.527 357.841 265.5C360.394 267.554 362.394 270.054 363.841 273C363.174 273.667 362.508 274.333 361.841 275C363.927 278.178 364.261 281.512 362.841 285C363.187 286.196 363.687 286.196 364.341 285C364.508 285.667 364.674 286.333 364.841 287C362.603 290.56 362.937 294.06 365.841 297.5C363.026 306.778 360.359 316.278 357.841 326C358.05 326.586 358.384 327.086 358.841 327.5C357.406 327.189 356.073 327.355 354.841 328C354.508 328.333 354.174 328.667 353.841 329C354.615 330.211 355.448 330.211 356.341 329C356.076 332.789 354.576 333.455 351.841 331C351.023 332.608 350.356 334.275 349.841 336C346.59 336.453 344.256 338.119 342.841 341C335.68 342.556 328.68 342.056 321.841 339.5C323.037 338.846 323.037 338.346 321.841 338C318.642 338.842 316.642 337.509 315.841 334C320.282 332.765 324.448 330.765 328.341 328C328.765 330.115 329.932 330.948 331.841 330.5C330.13 329.367 329.63 327.867 330.341 326C332.751 323.103 334.918 320.103 336.841 317C338.135 316.21 339.302 315.21 340.341 314C342.138 308.211 344.805 302.878 348.341 298C350.431 293.901 351.597 289.567 351.841 285C353.333 281.218 354.499 277.218 355.341 273C355.84 267.009 356.007 261.009 355.841 255Z"
        fill="#9D9D9D" />
    <path fill-rule="evenodd" clip-rule="evenodd"
        d="M353.841 242C354.563 242.418 355.063 243.084 355.341 244C355.84 247.652 356.006 251.318 355.841 255C356.007 261.009 355.84 267.009 355.341 273C354.499 277.218 353.333 281.218 351.841 285C354.903 270.798 355.569 256.464 353.841 242Z"
        fill="#4A4A4A" />
    <path fill-rule="evenodd" clip-rule="evenodd"
        d="M464.841 253C464.474 258.672 463.974 264.339 463.341 270C462.356 274.438 461.189 278.771 459.841 283C461.115 273.679 462.282 264.345 463.341 255C463.619 254.084 464.119 253.418 464.841 253Z"
        fill="#3F3F3F" />
    <path fill-rule="evenodd" clip-rule="evenodd"
        d="M142.841 272C144.471 276.411 145.471 281.078 145.841 286C143.997 281.638 142.997 276.971 142.841 272Z"
        fill="#434343" />
    <path opacity="0.718" fill-rule="evenodd" clip-rule="evenodd"
        d="M2.84067 271C3.83667 270.914 4.66967 271.248 5.34067 272C7.26667 277.163 8.43367 282.497 8.84067 288C10.7297 299.222 13.3967 310.222 16.8407 321C11.0457 310.665 7.54567 299.332 6.34067 287C3.99467 284.794 3.49467 282.294 4.84067 279.5C2.62867 276.834 1.96167 274 2.84067 271Z"
        fill="#F8CF9E" />
    <path fill-rule="evenodd" clip-rule="evenodd"
        d="M388.841 288C388.604 291.147 387.771 294.147 386.341 297C385.964 298.442 385.131 299.442 383.841 300C383.841 299.667 383.841 299.333 383.841 299C385.269 295.15 386.935 291.483 388.841 288Z"
        fill="#464646" />
    <path fill-rule="evenodd" clip-rule="evenodd"
        d="M27.8408 268C30.3058 278.971 32.9718 289.971 35.8408 301C30.9218 290.786 28.2548 279.786 27.8408 268Z"
        fill="#727272" />
    <path fill-rule="evenodd" clip-rule="evenodd"
        d="M459.841 285C459.281 287.301 458.781 289.634 458.341 292C457.958 292.556 457.458 292.889 456.841 293C457.002 289.82 458.002 287.153 459.841 285Z"
        fill="#535353" />
    <path opacity="0.639" fill-rule="evenodd" clip-rule="evenodd"
        d="M489.841 254C488.804 266.03 487.304 278.03 485.341 290C483.965 293.322 482.465 296.489 480.841 299.5C481.649 299.808 482.316 300.308 482.841 301C479.612 309.31 476.446 317.643 473.341 326C471.285 330.434 468.785 334.434 465.841 338C465.678 335.643 465.844 333.31 466.341 331C468.531 328.476 469.865 325.476 470.341 322C471.03 321.143 471.863 320.477 472.841 320C475.293 308.797 478.627 297.797 482.841 287C483.871 276.24 485.205 265.573 486.841 255C487.732 254.39 488.732 254.057 489.841 254Z"
        fill="#D7BC9C" />
    <path fill-rule="evenodd" clip-rule="evenodd"
        d="M145.841 288C146.458 288.111 146.958 288.444 147.341 289C148.022 292.721 148.855 296.387 149.841 300C148.41 299.619 147.577 298.619 147.341 297C146.978 293.956 146.478 290.956 145.841 288Z"
        fill="#9B9B9B" />
    <path fill-rule="evenodd" clip-rule="evenodd"
        d="M111.841 298C114.914 302.55 117.247 307.55 118.841 313C116.305 309.589 114.138 305.923 112.341 302C111.851 300.707 111.684 299.373 111.841 298Z"
        fill="#484848" />
    <path fill-rule="evenodd" clip-rule="evenodd"
        d="M37.8408 307C39.5858 308.533 40.5858 310.533 40.8408 313C39.0958 311.467 38.0958 309.467 37.8408 307Z"
        fill="#555555" />
    <path fill-rule="evenodd" clip-rule="evenodd"
        d="M453.841 306C451.978 312.422 449.811 318.755 447.341 325C446.633 325.881 445.799 326.547 444.841 327C445.743 323.715 446.743 320.381 447.841 317C450.554 313.571 452.554 309.905 453.841 306Z"
        fill="#999A9A" />
    <path fill-rule="evenodd" clip-rule="evenodd"
        d="M149.841 300C152.81 304.981 155.81 309.981 158.841 315C159.76 317.589 161.427 319.589 163.841 321C166.219 323.378 168.886 325.378 171.841 327C173.663 330.058 176.329 332.225 179.841 333.5C179.508 333.833 179.174 334.167 178.841 334.5C181.389 339.428 184.556 343.928 188.341 348C189.35 349.525 189.85 351.192 189.841 353C187.656 353.204 185.656 353.87 183.841 355C178.497 355.166 173.164 354.999 167.841 354.5C166.604 354.268 165.604 353.768 164.841 353C167.006 353.384 168.673 352.717 169.841 351C167.763 349.11 166.43 346.776 165.841 344C164.965 343.249 163.965 342.749 162.841 342.5C163.508 342.167 164.174 341.833 164.841 341.5C162.334 337.339 160.501 332.839 159.341 328C160.959 322.891 159.459 318.891 154.841 316C156.28 314.157 156.113 312.49 154.341 311C154.122 312.438 153.622 313.771 152.841 315C152.508 314.833 152.174 314.667 151.841 314.5C152.449 313.269 152.782 311.936 152.841 310.5C152.178 306.861 151.178 303.361 149.841 300Z"
        fill="#DBDBDB" />
    <path fill-rule="evenodd" clip-rule="evenodd"
        d="M158.841 315C161.255 316.411 162.922 318.411 163.841 321C161.427 319.589 159.76 317.589 158.841 315Z"
        fill="#848484" />
    <path fill-rule="evenodd" clip-rule="evenodd"
        d="M40.8408 315C42.5138 318.16 44.1808 321.493 45.8408 325C42.7028 322.583 41.0368 319.25 40.8408 315Z"
        fill="#828280" />
    <path fill-rule="evenodd" clip-rule="evenodd"
        d="M376.841 316C376.901 319.894 375.234 322.561 371.841 324C372.724 320.796 374.391 318.129 376.841 316Z"
        fill="#3A3A3A" />
    <path fill-rule="evenodd" clip-rule="evenodd"
        d="M216.841 334C216.841 333 216.841 332 216.841 331C212.565 332.308 208.232 333.308 203.841 334C212.369 331.095 219.869 326.428 226.341 320C226.936 321.399 226.769 322.732 225.841 324C222.79 327.379 219.79 330.712 216.841 334Z"
        fill="#6B6B6B" />
    <path fill-rule="evenodd" clip-rule="evenodd"
        d="M45.8408 326C48.9338 329.847 51.2668 334.18 52.8408 339C51.8828 338.547 51.0488 337.881 50.3408 337C48.5728 333.414 47.0728 329.747 45.8408 326Z"
        fill="#8E8E8E" />
    <path fill-rule="evenodd" clip-rule="evenodd"
        d="M336.841 317C334.918 320.103 332.751 323.103 330.341 326C329.63 327.867 330.13 329.367 331.841 330.5C329.932 330.948 328.765 330.115 328.341 328C324.448 330.765 320.282 332.765 315.841 334C310.982 335.488 305.982 336.155 300.841 336C298.484 336.163 296.151 335.997 293.841 335.5C293.285 335.117 292.952 334.617 292.841 334C297.639 335.244 302.306 335.244 306.841 334C318.752 331.727 328.752 326.06 336.841 317Z"
        fill="#787878" />
    <path fill-rule="evenodd" clip-rule="evenodd"
        d="M283.841 330C285.244 331.431 286.91 332.598 288.841 333.5C290.134 333.99 291.468 334.157 292.841 334C292.952 334.617 293.285 335.117 293.841 335.5C296.151 335.997 298.484 336.163 300.841 336C302.614 339.879 305.114 343.212 308.341 346C308.674 345.667 309.008 345.333 309.341 345C310.873 348.024 313.04 350.524 315.841 352.5C312.453 353.159 309.12 352.992 305.841 352C305.174 352 304.508 352 303.841 352C301.183 349.09 297.85 347.09 293.841 346C286.547 340.54 280.047 334.207 274.341 327C273.359 325.741 273.026 324.408 273.341 323C276.297 326.222 279.797 328.556 283.841 330Z"
        fill="#BCBCBC" />
    <path fill-rule="evenodd" clip-rule="evenodd"
        d="M283.841 330C291.162 332.862 298.828 334.196 306.841 334C302.306 335.244 297.639 335.244 292.841 334C291.468 334.157 290.134 333.99 288.841 333.5C286.91 332.598 285.244 331.431 283.841 330Z"
        fill="#383838" />
    <path fill-rule="evenodd" clip-rule="evenodd"
        d="M216.841 334C212.237 340.614 206.237 345.281 198.841 348C198.887 344.959 198.387 341.959 197.341 339C193.456 337.083 189.623 335.416 185.841 334C191.82 335.226 197.82 335.226 203.841 334C208.232 333.308 212.565 332.308 216.841 331C216.841 332 216.841 333 216.841 334Z"
        fill="#A4A4A4" />
    <path opacity="0.922" fill-rule="evenodd" clip-rule="evenodd"
        d="M8.84082 288C9.79882 288.453 10.6328 289.119 11.3408 290C13.4068 300.524 16.0738 310.857 19.3408 321C25.1418 328.942 29.3088 337.609 31.8408 347C29.6368 344.187 27.3028 341.521 24.8408 339C22.5898 335.452 20.4228 331.785 18.3408 328C17.3638 325.76 16.8638 323.427 16.8408 321C13.3968 310.222 10.7298 299.222 8.84082 288Z"
        fill="#F8DDBD" />
    <path fill-rule="evenodd" clip-rule="evenodd"
        d="M171.841 327C175.526 328.623 178.859 330.79 181.841 333.5C183.134 333.99 184.468 334.157 185.841 334C189.623 335.416 193.456 337.083 197.341 339C198.387 341.959 198.887 344.959 198.841 348C195.816 349.519 192.816 351.186 189.841 353C189.85 351.192 189.35 349.525 188.341 348C184.556 343.928 181.389 339.428 178.841 334.5C179.174 334.167 179.508 333.833 179.841 333.5C176.329 332.225 173.663 330.058 171.841 327Z"
        fill="#BFBFBF" />
    <path fill-rule="evenodd" clip-rule="evenodd"
        d="M293.841 346C297.85 347.09 301.183 349.09 303.841 352C301.072 351.063 298.405 349.896 295.841 348.5C294.96 347.792 294.294 346.958 293.841 346Z"
        fill="#737373" />
    <path opacity="0.131" fill-rule="evenodd" clip-rule="evenodd"
        d="M24.8408 339C27.3028 341.521 29.6368 344.187 31.8408 347C32.7568 350.003 34.2568 352.67 36.3408 355C36.8308 356.293 36.9978 357.627 36.8408 359C35.8448 359.086 35.0118 358.752 34.3408 358C30.4278 351.954 27.2608 345.621 24.8408 339Z"
        fill="#F2C891" />
    <path opacity="0.134" fill-rule="evenodd" clip-rule="evenodd"
        d="M465.841 339C464.005 343.339 462.171 347.672 460.341 352C459.034 353.692 457.534 355.025 455.841 356C457.505 352.131 459.005 348.131 460.341 344C462.276 342.306 464.11 340.639 465.841 339Z"
        fill="#D1B08A" />
    <path fill-rule="evenodd" clip-rule="evenodd"
        d="M160.841 353C162.174 353 163.508 353 164.841 353C165.604 353.768 166.604 354.268 167.841 354.5C173.164 354.999 178.497 355.166 183.841 355C177.688 356.153 171.355 356.32 164.841 355.5C163.483 354.566 162.149 353.732 160.841 353Z"
        fill="#525252" />
    <path fill-rule="evenodd" clip-rule="evenodd"
        d="M430.841 350C429.044 355.136 426.044 359.47 421.841 363C424.458 358.386 427.458 354.053 430.841 350Z"
        fill="#858585" />
    <path fill-rule="evenodd" clip-rule="evenodd"
        d="M421.841 363C420.224 366.284 417.891 368.951 414.841 371C416.487 367.69 418.821 365.023 421.841 363Z"
        fill="#716F6E" />
    <path opacity="0.392" fill-rule="evenodd" clip-rule="evenodd"
        d="M455.841 357C454.422 363.078 451.089 367.745 445.841 371C447.383 367.114 449.383 363.448 451.841 360C452.929 358.566 454.263 357.566 455.841 357Z"
        fill="#C8AE8B" />
    <path opacity="0.553" fill-rule="evenodd" clip-rule="evenodd"
        d="M36.8408 359C40.1068 358.933 41.6068 360.599 41.3408 364C43.0918 364.722 44.5918 365.722 45.8408 367C47.3148 371.256 49.8148 374.922 53.3408 378C54.9748 382.301 57.9748 385.301 62.3408 387C63.6158 392.487 66.6158 396.821 71.3408 400C73.1618 401.646 74.3278 403.646 74.8408 406C61.7318 394.228 50.0648 381.228 39.8408 367C37.8468 364.684 36.8468 362.018 36.8408 359Z"
        fill="#EFCCA0" />
    <path fill-rule="evenodd" clip-rule="evenodd"
        d="M411.841 375C407.841 381 402.841 386 396.841 390C401.508 384.667 406.508 379.667 411.841 375Z"
        fill="#979797" />
    <path opacity="0.302" fill-rule="evenodd" clip-rule="evenodd"
        d="M445.841 372C440.95 381.551 434.284 389.551 425.841 396C426.486 391.337 428.819 387.67 432.841 385C435.544 378.964 439.877 374.63 445.841 372Z"
        fill="#D5B898" />
    <path fill-rule="evenodd" clip-rule="evenodd"
        d="M390.841 395C387.637 400.035 383.637 404.202 378.841 407.5C373.408 409.915 368.075 412.415 362.841 415C372.546 408.818 381.879 402.151 390.841 395Z"
        fill="#B1B1B1" />
    <path opacity="0.863" fill-rule="evenodd" clip-rule="evenodd"
        d="M74.8408 406C79.3028 408.021 83.6358 410.188 87.8408 412.5C91.4468 416.005 95.1138 419.339 98.8408 422.5C101.849 424.228 104.849 425.894 107.841 427.5C109.378 428.61 110.044 430.11 109.841 432C113.225 432.364 116.225 433.697 118.841 436C119.468 436.917 119.802 437.917 119.841 439C110.386 434.423 101.386 428.923 92.8408 422.5C86.3898 417.552 80.3898 412.052 74.8408 406Z"
        fill="#E6C7A2" />
    <path opacity="0.965" fill-rule="evenodd" clip-rule="evenodd"
        d="M425.841 396C425.972 396.739 425.805 397.406 425.341 398C414.366 408.656 402.866 418.49 390.841 427.5C388.455 428.693 386.121 429.86 383.841 431C385.143 428.059 387.143 425.725 389.841 424C391.296 419.714 394.296 417.547 398.841 417.5C407.109 411.387 414.442 404.387 420.841 396.5C422.521 397.271 424.188 397.105 425.841 396Z"
        fill="#DAC2A5" />
    <path fill-rule="evenodd" clip-rule="evenodd"
        d="M162.841 457C162.508 457 162.174 457 161.841 457C158.978 454.78 155.645 453.78 151.841 454C151.841 453 151.841 452 151.841 451C147.898 450.014 143.898 449.348 139.841 449C139.508 449 139.174 449 138.841 449C137.457 446.502 135.457 444.502 132.841 443C128.839 442.409 125.172 441.076 121.841 439C121.174 439 120.508 439 119.841 439C119.802 437.917 119.468 436.917 118.841 436C116.225 433.697 113.225 432.364 109.841 432C110.044 430.11 109.378 428.61 107.841 427.5C104.849 425.894 101.849 424.228 98.8408 422.5C95.1138 419.339 91.4468 416.005 87.8408 412.5C83.6358 410.188 79.3028 408.021 74.8408 406C74.3278 403.646 73.1618 401.646 71.3408 400C66.6158 396.821 63.6158 392.487 62.3408 387C57.9748 385.301 54.9748 382.301 53.3408 378C49.8148 374.922 47.3148 371.256 45.8408 367C47.0968 366.596 48.2638 365.929 49.3408 365C50.3408 365.667 51.3408 366.333 52.3408 367C53.6408 365.793 55.1408 365.126 56.8408 365C56.7548 367.177 56.0878 369.177 54.8408 371C55.7478 373.921 56.0808 376.921 55.8408 380C60.3548 379.807 61.6878 377.64 59.8408 373.5C61.4078 370.759 63.7418 369.592 66.8408 370C65.9588 374.216 65.9588 378.383 66.8408 382.5C66.8388 385.086 65.8388 387.086 63.8408 388.5C66.4898 390.131 68.1568 392.465 68.8408 395.5C70.6768 396.919 72.6768 398.086 74.8408 399C75.3458 401.688 76.6788 403.855 78.8408 405.5C81.7028 406.43 84.0358 408.097 85.8408 410.5C91.5218 410.906 95.8548 413.406 98.8408 418C99.7658 419.141 100.6 419.141 101.341 418C102.008 418.667 102.674 419.333 103.341 420C104.018 417.811 105.185 417.478 106.841 419C109.281 416.578 111.615 416.578 113.841 419C114.766 417.859 115.6 417.859 116.341 419C116.729 418.072 117.396 417.405 118.341 417C120.175 419.256 121.842 419.256 123.341 417C125.41 417.764 127.577 418.264 129.841 418.5C129.508 418.833 129.174 419.167 128.841 419.5C130.348 420.337 130.848 421.504 130.341 423C128.367 422.853 126.367 422.519 124.341 422C122.394 422.61 120.56 423.443 118.841 424.5C119.508 425.5 120.174 426.5 120.841 427.5C124.075 428.211 127.242 429.045 130.341 430C129.875 433.447 127.709 435.28 123.841 435.5C128.434 438.4 133.434 440.233 138.841 441C138.693 437.663 137.359 434.83 134.841 432.5C135.976 429.63 137.809 428.797 140.341 430C141.735 428.887 142.902 427.553 143.841 426C145.691 426.742 146.357 427.742 145.841 429C147.916 427.738 149.916 427.905 151.841 429.5C149.78 431.157 147.614 432.657 145.341 434C144.165 437.76 145.331 440.593 148.841 442.5C147.13 443.633 146.63 445.133 147.341 447C149.802 447.718 152.302 448.385 154.841 449C155.603 450.128 156.27 451.295 156.841 452.5C159.884 452.832 161.884 454.332 162.841 457Z"
        fill="#EEEAE5" />
    <path fill-rule="evenodd" clip-rule="evenodd"
        d="M347.841 423C341.587 428.557 334.254 431.89 325.841 433C332.937 429.401 340.27 426.068 347.841 423Z"
        fill="#939495" />
    <path fill-rule="evenodd" clip-rule="evenodd"
        d="M162.841 432C165.446 432.121 167.446 433.121 168.841 435C166.374 434.745 164.374 433.745 162.841 432Z"
        fill="#7C7C7C" />
    <path fill-rule="evenodd" clip-rule="evenodd"
        d="M318.841 435C318.73 435.617 318.397 436.117 317.841 436.5C315.475 436.94 313.142 437.44 310.841 438C310.952 437.383 311.285 436.883 311.841 436.5C314.207 436.06 316.54 435.56 318.841 435Z"
        fill="#5B5B5B" />
    <path fill-rule="evenodd" clip-rule="evenodd"
        d="M173.841 436C179.086 436.809 184.086 438.142 188.841 440C183.41 439.828 178.41 438.495 173.841 436Z"
        fill="#3A3A3A" />
    <path opacity="0.997" fill-rule="evenodd" clip-rule="evenodd"
        d="M389.841 424C387.143 425.725 385.143 428.059 383.841 431C381.683 433.493 379.017 435.16 375.841 436C368.826 437.124 363.159 440.457 358.841 446C356.214 446.592 353.547 446.925 350.841 447C353.275 444.062 355.942 441.229 358.841 438.5C362.511 438.311 366.011 437.477 369.341 436C373.92 432.625 378.754 429.625 383.841 427C385.053 424.577 387.053 423.577 389.841 424Z"
        fill="#EFDDCB" />
    <path opacity="0.031" fill-rule="evenodd" clip-rule="evenodd"
        d="M375.841 436C375.972 436.876 375.639 437.543 374.841 438C369.742 441.09 364.409 443.756 358.841 446C363.159 440.457 368.826 437.124 375.841 436Z"
        fill="#C1A588" />
    <path fill-rule="evenodd" clip-rule="evenodd"
        d="M302.841 440C300.317 441.24 297.65 442.407 294.841 443.5C285.6 445.322 276.267 446.488 266.841 447C266.841 446.667 266.841 446.333 266.841 446C278.875 444.668 290.875 442.668 302.841 440Z"
        fill="#8D8D8D" />
    <path opacity="0.327" fill-rule="evenodd" clip-rule="evenodd"
        d="M121.841 439C125.172 441.076 128.839 442.409 132.841 443C135.457 444.502 137.457 446.502 138.841 449C133.762 447.123 128.762 444.956 123.841 442.5C122.518 441.684 121.852 440.517 121.841 439Z"
        fill="#DCBB97" />
    <path fill-rule="evenodd" clip-rule="evenodd"
        d="M198.841 443C202.855 442.834 206.855 443.001 210.841 443.5C211.757 443.778 212.423 444.278 212.841 445C207.927 445.138 203.26 444.472 198.841 443Z"
        fill="#3C3C3C" />
    <path fill-rule="evenodd" clip-rule="evenodd"
        d="M213.841 445C231.491 445.881 249.158 446.214 266.841 446C266.841 446.333 266.841 446.667 266.841 447C250.164 448.397 233.497 448.231 216.841 446.5C215.604 446.268 214.604 445.768 213.841 445Z"
        fill="#4D4D4D" />
    <path opacity="0.337" fill-rule="evenodd" clip-rule="evenodd"
        d="M358.841 446C352.721 449.341 346.387 452.508 339.841 455.5C338.548 455.99 337.214 456.157 335.841 456C335.841 455.333 335.841 454.667 335.841 454C337.841 453.333 339.841 452.667 341.841 452C341.622 450.825 341.955 449.825 342.841 449C345.485 448.205 348.152 447.538 350.841 447C353.547 446.925 356.214 446.592 358.841 446Z"
        fill="#CEB291" />
    <path opacity="0.7" fill-rule="evenodd" clip-rule="evenodd"
        d="M139.841 449C143.898 449.348 147.898 450.014 151.841 451C151.841 452 151.841 453 151.841 454C155.645 453.78 158.978 454.78 161.841 457C161.927 460.458 160.26 462.458 156.841 463C157.092 461.33 157.759 459.83 158.841 458.5C152.123 455.808 145.79 452.641 139.841 449Z"
        fill="#D1B18A" />
</svg>