<?xml version="1.0" encoding="UTF-8"?>
<!DOCTYPE svg PUBLIC "-//W3C//DTD SVG 1.1//EN" "http://www.w3.org/Graphics/SVG/1.1/DTD/svg11.dtd">
<svg xmlns="http://www.w3.org/2000/svg" version="1.1" width="512px" height="512px"
    style="shape-rendering:geometricPrecision; text-rendering:geometricPrecision; image-rendering:optimizeQuality; fill-rule:evenodd; clip-rule:evenodd"
    xmlns:xlink="http://www.w3.org/1999/xlink">
    <g>
        <path style="opacity:0.986" fill="#00008a"
            d="M 322.5,-0.5 C 334.167,-0.5 345.833,-0.5 357.5,-0.5C 423.769,10.4023 466.602,48.069 486,112.5C 496.858,160.721 487.358,204.387 457.5,243.5C 475.188,261.854 493.188,279.854 511.5,297.5C 511.5,298.167 511.5,298.833 511.5,299.5C 450.832,299.667 390.166,299.5 329.5,299C 267.656,292.342 224.489,260.509 200,203.5C 180.071,144.145 190.737,91.1455 232,44.5C 257.181,19.4929 287.348,4.49291 322.5,-0.5 Z M 337.5,59.5 C 369.427,62.2561 384.927,79.5895 384,111.5C 381.258,125.515 373.758,136.015 361.5,143C 359.291,144.873 357.458,147.04 356,149.5C 354.58,159.086 354.08,168.753 354.5,178.5C 344.833,178.5 335.167,178.5 325.5,178.5C 325.334,169.494 325.5,160.494 326,151.5C 327.225,142.053 330.892,133.72 337,126.5C 342.15,121.927 347.483,117.594 353,113.5C 358.448,100.061 354.114,91.728 340,88.5C 331.475,89.5285 326.308,94.1951 324.5,102.5C 314.856,103.498 305.19,103.832 295.5,103.5C 298.704,78.3621 312.704,63.6954 337.5,59.5 Z M 325.5,209.5 C 335.167,209.5 344.833,209.5 354.5,209.5C 354.5,219.167 354.5,228.833 354.5,238.5C 344.833,238.5 335.167,238.5 325.5,238.5C 325.5,228.833 325.5,219.167 325.5,209.5 Z" />
    </g>
    <g>
        <path style="opacity:0.987" fill="#00008a"
            d="M -0.5,178.5 C 54.1707,178.167 108.837,178.5 163.5,179.5C 173.322,229.999 199.322,269.832 241.5,299C 239.541,308.572 238.874,318.405 239.5,328.5C 249.167,328.5 258.833,328.5 268.5,328.5C 268.173,323.456 268.506,318.456 269.5,313.5C 288.621,321.947 308.621,326.614 329.5,327.5C 329.5,364.833 329.5,402.167 329.5,439.5C 275.832,439.333 222.166,439.5 168.5,440C 132.657,463.696 96.9899,487.53 61.5,511.5C 60.8333,511.5 60.1667,511.5 59.5,511.5C 59.5,487.5 59.5,463.5 59.5,439.5C 39.5,439.5 19.5,439.5 -0.5,439.5C -0.5,352.5 -0.5,265.5 -0.5,178.5 Z M 60.5,299.5 C 70.1667,299.5 79.8333,299.5 89.5,299.5C 89.5,309.167 89.5,318.833 89.5,328.5C 79.8333,328.5 70.1667,328.5 60.5,328.5C 60.5,318.833 60.5,309.167 60.5,299.5 Z M 120.5,299.5 C 130.167,299.5 139.833,299.5 149.5,299.5C 149.5,309.167 149.5,318.833 149.5,328.5C 139.833,328.5 130.167,328.5 120.5,328.5C 120.5,318.833 120.5,309.167 120.5,299.5 Z M 180.5,299.5 C 189.833,299.5 199.167,299.5 208.5,299.5C 208.5,309.167 208.5,318.833 208.5,328.5C 199.167,328.5 189.833,328.5 180.5,328.5C 180.5,318.833 180.5,309.167 180.5,299.5 Z" />
    </g>
</svg>